<svg width="50" height="74" viewBox="0 0 50 74" fill="none" xmlns="http://www.w3.org/2000/svg">
<g clip-path="url(#clip0_159_459)">
<path d="M0 0.0166016L11.9557 24.0974H31.4437L19.4881 0.0166016H0Z" fill="#C1432F"/>
<path d="M1.42139 0.0146484L13.359 24.055H14.4231L2.48734 0.0146484H1.42139Z" fill="#E85D46"/>
<path d="M29.9591 24.055L18.0233 0.0146484H16.9773L28.9348 24.0973L29.9591 24.055Z" fill="#E85D46"/>
<path d="M30.5102 0.0112305L18.5527 24.0976H38.0408L50.0001 0.0112305H30.5102Z" fill="#C1432F"/>
<path d="M47.4949 0L35.532 24.0974L36.5562 24.0551L48.4992 0H47.4949Z" fill="#E85D46"/>
<path d="M31.9606 0L19.9958 24.0974L21.0201 24.0551L32.9631 0H31.9606Z" fill="#E85D46"/>
<path d="M27.1492 42.683H22.7929C21.8049 42.683 21 41.8659 21 40.8629V30.568C21 29.565 21.8049 28.7479 22.7929 28.7479H27.1492C28.1372 28.7479 28.9421 29.565 28.9421 30.568V40.8629C28.9421 41.8659 28.1372 42.683 27.1492 42.683ZM22.8944 40.7617H27.0476V30.6711H22.8944V40.7617Z" fill="#C1432F"/>
<path d="M44.1967 58.5502C46.7029 47.7708 40.1266 36.9699 29.5082 34.4257C18.8898 31.8815 8.25028 38.5575 5.74411 49.337C3.23795 60.1164 9.8142 70.9173 20.4326 73.4615C31.051 76.0057 41.6905 69.3297 44.1967 58.5502Z" fill="#D35437"/>
<path d="M24.9701 70.1427C16.1723 70.1427 9.01343 62.877 9.01343 53.944C9.01343 45.011 16.1705 37.7454 24.9701 37.7454C33.7696 37.7454 40.9267 45.011 40.9267 53.944C40.9267 62.877 33.7696 70.1427 24.9701 70.1427ZM24.9701 38.7759C16.7307 38.7759 10.0268 45.5815 10.0268 53.9459C10.0268 62.3102 16.7307 69.1158 24.9701 69.1158C33.2094 69.1158 39.9133 62.3102 39.9133 53.9459C39.9133 45.5815 33.2094 38.7759 24.9701 38.7759Z" fill="#C1432F"/>
<path d="M26.7142 24.4581H23.2317V31.2692H26.7142V24.4581Z" fill="#D35437"/>
<path d="M38.0661 23.9427H11.876V26.6664H38.0661V23.9427Z" fill="#D35437"/>
<path d="M18.0649 45.5392C19.1308 44.3651 21.7087 42.6812 24.4062 42.6812C29.2356 42.6812 31.9621 45.2079 31.9621 49.0579C31.9621 51.1025 30.539 52.2767 29.7704 52.8785C30.7185 53.5704 32.5259 55.1053 32.5259 57.8124C32.5259 62.2642 28.3165 64.4303 24.3174 64.4303C21.502 64.4303 18.5688 62.7758 17.4141 61.0312L20.4361 57.8419C21.5328 58.9553 22.6586 59.7981 24.3482 59.7981C26.0378 59.7981 27.0149 58.9865 27.0149 57.4812C27.0149 55.8561 26.0378 55.2856 24.5548 55.2856H22.3323V51.7062H24.495C25.9181 51.7062 27.0149 50.9848 27.0149 49.6303C27.0149 48.0052 25.6516 47.2544 24.4062 47.2544C23.2804 47.2544 21.977 47.9464 20.94 49.0598L18.0649 45.5392Z" fill="#AD3427"/>
</g>
<defs>
<clipPath id="clip0_159_459">
<rect width="50" height="74" fill="white"/>
</clipPath>
</defs>
</svg>
