<svg width="46" height="32" viewBox="0 0 46 32" fill="none" xmlns="http://www.w3.org/2000/svg">
<path d="M41.102 32H4.57909C2.09614 32 0 29.7262 0 26.932V4.09756C0 1.43089 1.97068 0 4.57909 0H41.102C43.9065 0 46 1.6 46 4.09756V26.932C46 29.5415 43.7653 32 41.102 32ZM4.57909 2.0813C3.12068 2.0813 2.09091 2.57301 2.09091 4.09756V26.932C2.09091 28.3889 3.07886 30.1789 4.57909 30.1789H41.102C42.6153 30.1789 44.1705 28.3993 44.1705 26.932V4.09756C44.1705 2.59642 42.5787 2.0813 41.102 2.0813H4.57909Z" fill="white"/>
<path d="M21.884 18.2556C21.7716 19.8088 21.194 21.0315 20.1564 21.9239C19.1161 22.8163 17.7466 23.2637 16.0477 23.2637C14.1894 23.2637 12.7258 22.6419 11.6594 21.3958C10.5931 20.1496 10.0599 18.4403 10.0599 16.2628V15.3808C10.0599 13.9915 10.3056 12.7688 10.7969 11.7125C11.2883 10.6537 11.9914 9.84194 12.9035 9.27739C13.8157 8.71284 14.8768 8.42926 16.0869 8.42926C17.7597 8.42926 19.1083 8.87414 20.1302 9.7691C21.1522 10.6615 21.7455 11.9128 21.9023 13.5284H18.9149C18.8417 12.5971 18.5803 11.9206 18.1334 11.5018C17.6839 11.0829 17.0017 10.8722 16.0869 10.8722C15.0911 10.8722 14.3463 11.2286 13.8497 11.9389C13.3531 12.6491 13.0995 13.7522 13.0865 15.2455V16.3356C13.0865 17.8966 13.3243 19.0361 13.7974 19.7567C14.2731 20.4774 15.0206 20.8364 16.0451 20.8364C16.9677 20.8364 17.6577 20.6257 18.1125 20.2068C18.5673 19.788 18.8286 19.1376 18.894 18.2582H21.8814L21.884 18.2556Z" fill="white"/>
<path d="M35.9898 18.2556C35.8774 19.8088 35.2998 21.0315 34.2622 21.9239C33.2219 22.8163 31.8524 23.2637 30.1535 23.2637C28.2926 23.2637 26.8316 22.6419 25.7652 21.3958C24.6989 20.1496 24.1657 18.4403 24.1657 16.2628V15.3808C24.1657 13.9915 24.4114 12.7688 24.9027 11.7125C25.3941 10.6537 26.0972 9.84194 27.0093 9.27739C27.9215 8.71284 28.9826 8.42926 30.1927 8.42926C31.8655 8.42926 33.2141 8.87414 34.236 9.7691C35.258 10.6615 35.8513 11.9128 36.0107 13.5284H33.0207C32.9475 12.5971 32.6888 11.9206 32.2392 11.5018C31.7923 11.0829 31.1075 10.8722 30.1927 10.8722C29.1969 10.8722 28.4521 11.2286 27.9555 11.9389C27.4615 12.6491 27.208 13.7522 27.1949 15.2455V16.3356C27.1949 17.8966 27.4327 19.0361 27.9084 19.7567C28.3841 20.4774 29.1316 20.8364 30.1535 20.8364C31.0761 20.8364 31.7661 20.6257 32.2209 20.2068C32.6757 19.788 32.937 19.1376 33.0024 18.2582H35.9898V18.2556Z" fill="white"/>
</svg>
