<?xml version="1.0" encoding="utf-8"?>
<!-- Generator: Adobe Illustrator 26.3.1, SVG Export Plug-In . SVG Version: 6.00 Build 0)  -->
<svg version="1.1" id="Layer_1" xmlns="http://www.w3.org/2000/svg" xmlns:xlink="http://www.w3.org/1999/xlink" x="0px" y="0px"
	 viewBox="0 0 85.8 87.1" style="enable-background:new 0 0 85.8 87.1;" xml:space="preserve">
<style type="text/css">
	.st0{fill:#F6A71C;}
	.st1{fill:#069C83;}
</style>
<g>
	<circle class="st0" cx="22.1" cy="22.5" r="2.8"/>
	<path class="st0" d="M30.3,19.7c-1.6,0-2.8,1.3-2.8,2.8s1.3,2.8,2.8,2.8c1.6,0,2.8-1.3,2.8-2.8S31.9,19.7,30.3,19.7z"/>
	<circle class="st0" cx="46.8" cy="22.5" r="2.8"/>
	<path class="st1" d="M59.9,34.3l-4.3,4.3L78,41.4L54.8,63.8l-44-7.1l16.4-11.8l-5.8-1.7L2.9,56.5l-0.2,0.4
		c-2.2,3.4-3.1,7.5-2.4,11.4c0.7,3.8,2.7,7.3,6,10.1l0.5,0.4l51.7,8.3l27.3-28.5V37.5L59.9,34.3z M81,56.6L56.7,81.9L8.9,74.2
		c-2.1-1.9-3.5-4.3-3.9-6.8c-0.4-2.2,0-4.5,0.9-6.6l50.5,8.1L81,45.3V56.6z"/>
	<path class="st0" d="M27.3,45.2c2.3,0.5,4.7,0.7,7.2,0.7c0.5,0,1.1,0,1.7,0c0.3,0,0.6,0,0.9,0l13.8,9.8l1.6-14.5c1-0.6,2-1.3,3-2.1
		l1.7-1.6c0.4-0.4,0.8-0.8,1.2-1.2l1.4-1.6c0.3-0.3,0.5-0.7,0.8-1.1c2.2-3.3,3.4-7,3.4-10.7c0-6.3-3.1-12.1-8.8-16.4
		C49.4,2.3,42.2,0,34.5,0c-7.7,0-15,2.3-20.5,6.5C8.3,10.9,5.2,16.7,5.2,23c0,6.3,3.1,12.1,8.8,16.4c2.2,1.7,4.7,3.1,7.4,4.1
		l2.3,0.8c0.3,0.1,0.5,0.2,0.8,0.2L27.3,45.2z M16.9,35.6C12.5,32.2,10,27.7,10,23c0-4.7,2.5-9.2,6.9-12.6
		c4.7-3.6,10.9-5.5,17.5-5.5s12.9,2,17.5,5.5c4.5,3.4,6.9,7.9,6.9,12.6c0,2.8-0.9,5.5-2.5,8c-1.7,2.6-4.3,4.8-7.4,6.6l-1.1,0.6
		l-0.9,8.8l-8.5-6.1l-0.9,0.1C37,41,36.5,41,36,41c-0.4,0-1,0-1.5,0C27.8,41.1,21.6,39.1,16.9,35.6z"/>
	<path class="st0" d="M38.6,19.7c-1.6,0-2.8,1.3-2.8,2.8s1.3,2.8,2.8,2.8s2.8-1.3,2.8-2.8S40.1,19.7,38.6,19.7z"/>
</g>
</svg>
