<svg width="10" height="10" viewBox="0 0 10 10" fill="none" xmlns="http://www.w3.org/2000/svg">
<path d="M7.37394 8.68178L5.35371 7.34346C5.24598 7.27107 5.10547 7.28073 5.00555 7.36437L3.14612 8.9295C2.92286 9.1177 2.59813 8.90055 2.67151 8.61422L3.28351 6.22229C3.31629 6.09361 3.26477 5.95849 3.15705 5.88771L1.13681 4.54939C0.894821 4.38853 0.993181 4.00409 1.28045 3.98639L3.6785 3.84645C3.80652 3.8384 3.91581 3.74672 3.9486 3.61964L4.5606 1.22771C4.63398 0.941384 5.0196 0.918862 5.12421 1.19553L5.99381 3.50221C6.04065 3.62607 6.15931 3.70489 6.28733 3.69685L8.68538 3.5569C8.97265 3.54082 9.11316 3.91239 8.8899 4.09899L7.03047 5.66412C6.93055 5.74777 6.89464 5.88771 6.94148 6.01157L7.81109 8.31825C7.91569 8.59492 7.61593 8.84747 7.37394 8.68661L7.37394 8.68178Z" fill="#F7A707" stroke="black" stroke-width="0.6" stroke-miterlimit="10"/>
</svg>