<svg width="64" height="62" viewBox="0 0 64 62" fill="none" xmlns="http://www.w3.org/2000/svg">
<path d="M27.6794 3.41795C29.6081 0.106614 34.3919 0.106606 36.3206 3.41794L43.1758 15.1876C43.8823 16.4006 45.0662 17.2608 46.4381 17.5579L59.7501 20.4405C63.4954 21.2515 64.9737 25.8012 62.4204 28.6587L53.3451 38.8154C52.4098 39.8622 51.9576 41.254 52.099 42.6506L53.4711 56.2018C53.8571 60.0144 49.987 62.8262 46.4803 61.281L34.0162 55.7885C32.7317 55.2224 31.2683 55.2224 29.9838 55.7885L17.5197 61.281C14.013 62.8262 10.1429 60.0144 10.5289 56.2018L11.901 42.6506C12.0424 41.254 11.5902 39.8622 10.6549 38.8154L1.57961 28.6587C-0.97366 25.8012 0.5046 21.2516 4.24986 20.4405L17.5619 17.5579C18.9338 17.2608 20.1177 16.4006 20.8242 15.1876L27.6794 3.41795Z" fill="#00A887"/>
</svg>
