<svg width="73" height="73" viewBox="0 0 73 73" fill="none" xmlns="http://www.w3.org/2000/svg">
<path d="M36.628 72.6754C56.5146 72.6754 72.6359 56.5828 72.6359 36.7317C72.6359 16.8805 56.5146 0.787933 36.628 0.787933C16.7414 0.787933 0.620163 16.8805 0.620163 36.7317C0.620163 56.5828 16.7414 72.6754 36.628 72.6754Z" fill="#00A886"/>
<path d="M38.3427 56.5692C38.0512 56.5692 37.7768 56.4836 37.5539 56.3124L25.4484 47.2409C24.7969 46.813 23.1851 45.7347 23.1851 43.9375V28.3961C23.1851 26.7701 24.3853 25.7431 25.4484 25.0243L37.5539 15.9528C37.7768 15.7816 38.0512 15.696 38.3427 15.696C40.0059 15.696 41.3605 17.0482 41.3605 18.7084V53.5739C41.3605 55.217 40.0059 56.5692 38.3427 56.5692ZM38.617 18.4004L26.9916 27.1124C26.9745 27.1295 26.9573 27.1295 26.9402 27.1467C26.1686 27.6601 25.8085 28.0709 25.8085 28.379V43.9204C25.8085 44.0744 25.9457 44.4339 26.923 45.0672C26.9402 45.0843 26.9745 45.1014 26.9916 45.1185L38.617 53.8306C38.6856 53.7621 38.737 53.6594 38.737 53.5567V18.6913C38.737 18.5715 38.6856 18.4688 38.617 18.4004Z" fill="white"/>
<path d="M24.4882 45.4437H15.6063C13.9431 45.4437 12.5885 44.2456 12.5885 42.7736V29.4573C12.5885 27.9854 13.9431 26.7872 15.6063 26.7872H24.4882C25.2084 26.7872 25.7914 27.3692 25.7914 28.088V44.1258C25.7914 44.8618 25.2084 45.4437 24.4882 45.4437ZM15.2119 42.7223C15.2634 42.7736 15.4005 42.8421 15.6063 42.8421H23.1851V29.406H15.6063C15.4005 29.406 15.2634 29.4745 15.2119 29.5258V42.7223Z" fill="white"/>
<path d="M49.4537 51.3487C49.0079 51.3487 48.5792 51.1262 48.3391 50.7326C47.9619 50.1164 48.1505 49.3119 48.7678 48.9354C50.9969 47.5661 52.8487 45.6491 54.1518 43.3898C55.4893 41.062 56.1923 38.3919 56.1923 35.7047C56.1923 30.5527 53.6374 25.7431 49.3337 22.8505C48.7335 22.4397 48.5792 21.6353 48.9736 21.0362C49.3851 20.4371 50.191 20.2831 50.7911 20.6768C55.7979 24.0486 58.7986 29.6798 58.7986 35.7047C58.7986 38.854 57.9755 41.9691 56.4152 44.6906C54.9063 47.3265 52.7287 49.5687 50.1224 51.1605C49.9166 51.2803 49.6766 51.3487 49.4537 51.3487Z" fill="white"/>
<path d="M45.5271 46.2995C45.0641 46.2995 44.6012 46.0428 44.3611 45.5978C44.0182 44.9645 44.2754 44.16 44.9098 43.8348C47.9448 42.243 49.8309 39.1279 49.8309 35.7047C49.8309 32.658 48.322 29.7996 45.7843 28.088C45.1842 27.6772 45.0299 26.8728 45.4242 26.2737C45.8357 25.6747 46.6416 25.5206 47.2418 25.9143C50.4996 28.1051 52.4543 31.768 52.4543 35.6876C52.4543 40.0864 50.0367 44.0915 46.1272 46.1284C45.9386 46.2482 45.7329 46.2995 45.5271 46.2995Z" fill="white"/>
</svg>
