<svg width="48" height="30" viewBox="0 0 48 30" fill="none" xmlns="http://www.w3.org/2000/svg">
<path d="M28.7062 3.46973H47.7473V9.3942H38.2026V13.1707H47.2411V19.0716H38.2026V23.2966H47.9642V29.4099H28.7062V3.46973Z" fill="white"/>
<path d="M17.8118 13.9024L21.379 5.23998C22.9457 5.28719 24.2472 5.78286 26.6334 7.19907V5.00394C24.7052 3.89458 22.8011 3.37531 20.8729 3.37531C16.9441 3.37531 13.7385 6.42015 13.7385 10.2439C13.7385 12.321 14.4375 13.7136 15.498 14.705L11.1113 25.3501L2.00052 3.44612H0L10.798 29.6224H11.3523L17.0164 15.8379C20.5113 17.8442 25.5488 18.1275 25.5488 22.9426C25.5488 25.8694 23.259 28.1117 20.2944 28.1117C18.3662 28.1117 16.7995 27.4272 14.0277 25.3501V27.7105C16.2211 29.2211 18.3662 30 20.4149 30C24.4642 30 27.6457 26.8844 27.6457 22.8954C27.6457 16.1684 21.2103 16.192 17.8118 13.9024ZM15.8113 10.1731C15.8113 7.95438 17.2334 6.16051 19.2821 5.49962L16.4139 12.4862C16.0282 11.8726 15.8113 11.1172 15.8113 10.1731Z" fill="white"/>
<path d="M25.4524 0H16.2693V1.84107H25.4524V0Z" fill="white"/>
</svg>
