<svg width="67" height="67" viewBox="0 0 67 67" fill="none" xmlns="http://www.w3.org/2000/svg">
<path d="M67 0H0V67H67V0Z" fill="white"/>
<path d="M20.8209 18.9538H15.9052L9.9969 10.5876H9.97327V18.9538H6.80643V7.42078H11.6985L17.6068 15.8105H17.654V7.42078H20.8209V18.9538Z" fill="#1C1E3B"/>
<path d="M60.0755 15.6924C60.0755 17.5121 59.4611 18.9538 56.2706 18.9538H53.1747H50.8113C47.9754 18.9538 46.2738 18.1975 46.2738 15.0543V13.2109V11.3439C46.2738 8.17704 47.9754 7.42078 50.8113 7.42078H53.1747H56.2942C59.4611 7.42078 60.0992 8.8624 60.0992 10.6822V11.6984H56.9323C56.9323 10.3513 56.5069 10.2095 55.0889 10.2095H53.1747H51.4967C49.8424 10.2095 49.5115 11.0366 49.5115 12.3837V13.1873V13.9908C49.5115 15.3379 49.8187 16.165 51.4967 16.165H53.1747H55.0889C56.5069 16.165 56.9323 16.0232 56.9323 14.6762H60.0992V15.6924H60.0755Z" fill="#1C1E3B"/>
<path d="M36.0406 7.32629H30.9358C28.0762 7.32629 26.3746 8.12982 26.3746 11.4857V14.8889C26.3746 18.2448 28.0762 19.0483 30.9358 19.0483H36.0406C38.9002 19.0483 40.6018 18.2684 40.6018 14.8889V11.4857C40.6018 8.12982 38.9002 7.32629 36.0406 7.32629ZM37.3404 13.8018C37.3404 15.4561 37.0332 16.0942 35.5206 16.0942H31.4557C29.9432 16.0942 29.636 15.4561 29.636 13.8018V12.5729C29.636 11.1549 29.9432 10.2804 31.6212 10.2804H35.3552C37.0332 10.2804 37.3404 11.1549 37.3404 12.5729V13.8018Z" fill="#1C1E3B"/>
<path d="M26.3747 48.2589H29.4942V54.8289C29.4942 56.2705 29.9669 56.8377 31.2431 56.8377H35.3553C36.6315 56.8377 37.1041 56.2705 37.1041 54.8289V48.2589H40.2237V55.5851C40.2237 58.4211 38.9239 59.7682 36.0643 59.7682H30.5814C27.7218 59.7682 26.4219 58.4211 26.4219 55.5851V48.2589H26.3747Z" fill="#F7A707"/>
<path d="M39.9874 28.147V30.8176H29.7306V32.6846H37.175V35.0715H29.7306V36.9149H39.9165V39.68H27.0128V28.147H39.9874Z" fill="#F7A707"/>
<path d="M35.1662 27.0126H31.8103L29.9432 24.9092H32.3775L33.4882 25.9491L34.6226 24.9092H37.0568L35.1662 27.0126Z" fill="#F7A707"/>
<path d="M6.80643 52.1348C6.80643 48.9206 8.53165 48.1407 11.4149 48.1407H13.8255H16.9923C20.2064 48.1407 20.8445 49.606 20.8445 51.4494V52.4892H17.6304C17.6304 51.1185 17.205 50.9767 15.7634 50.9767H13.8255H12.1239C10.4459 50.9767 10.1151 51.8039 10.1151 53.1746V54.0018V54.8289C10.1151 56.1997 10.4223 57.0268 12.1239 57.0268H13.8255H15.7634C17.205 57.0268 17.6304 56.885 17.6304 55.5143H20.8445V56.5542C20.8445 58.3975 20.2064 59.8628 16.9923 59.8628H13.8255H11.4149C8.53165 59.8628 6.80643 59.1065 6.80643 55.8688V53.9781V52.1348Z" fill="#F7A707"/>
<path d="M21.5535 28.0525L15.8343 39.7745H11.793L6.07382 28.0525H9.64243L13.8255 36.7731L17.9849 28.0525H21.5535Z" fill="#F7A707"/>
<path d="M55.8216 28.147H46.2738V39.6564H55.8216C58.9884 39.6564 60.0992 38.4984 60.0992 35.6387V32.141C60.0756 29.3287 58.9648 28.147 55.8216 28.147ZM56.9324 34.6462C56.9324 36.2768 56.4124 36.7259 55.0417 36.7259H49.4406V31.0303H55.0417C56.3888 31.0303 56.9324 31.4557 56.9324 33.0864V34.6462Z" fill="#F7A707"/>
<path d="M33.2756 43.5559C31.8812 43.5559 30.7704 44.6903 30.7704 46.061C30.7704 47.4554 31.9048 48.5661 33.2756 48.5661C34.6699 48.5661 35.7807 47.4317 35.7807 46.061C35.8043 44.6667 34.6699 43.5559 33.2756 43.5559ZM33.2756 47.1245C32.6847 47.1245 32.2121 46.6518 32.2121 46.061C32.2121 45.4702 32.6847 44.9975 33.2756 44.9975C33.8664 44.9975 34.3391 45.4702 34.3391 46.061C34.3391 46.6518 33.8664 47.1245 33.2756 47.1245Z" fill="#F7A707"/>
</svg>
