<svg width="169" height="40" viewBox="0 0 169 40" fill="none" xmlns="http://www.w3.org/2000/svg">
<path d="M67.1133 6.55852L56.2553 33.372H54.5939L65.4752 6.55852H67.1133Z" fill="white"/>
<path d="M72.3316 13.5342H72.121L69.4066 7.23059H70.3192L72.2146 11.6338L74.1101 7.23059H74.9993L72.3316 13.5342Z" fill="white"/>
<path d="M78.2286 10.197V13.511H77.2926V10.197L74.9525 7.25377H76.0524L77.7372 9.40904L79.4455 7.25377H80.5453L78.2286 10.197Z" fill="white"/>
<path d="M84.032 8.6211C83.4938 8.11125 82.9789 7.9722 82.5577 7.9722C81.9259 7.9722 81.5515 8.29665 81.5515 8.69062C81.5515 9.22365 81.9259 9.43222 83.1194 10.1506C83.3768 10.3129 83.7044 10.5214 83.9384 10.8459C84.1256 11.1008 84.2894 11.4253 84.2894 11.8888C84.2894 12.8621 83.5874 13.6037 82.4641 13.6037C81.8323 13.6037 81.2473 13.3951 80.7559 13.0243V11.8888C80.9431 12.1205 81.5047 12.8158 82.4641 12.8158C82.9321 12.8158 83.447 12.5145 83.447 11.9815C83.447 11.4484 82.9087 11.0776 82.6045 10.8922C81.5983 10.2897 81.3175 10.1275 81.0367 9.77985C80.8495 9.52492 80.7325 9.24682 80.7325 8.85285C80.7325 7.90267 81.4579 7.18425 82.6045 7.18425C83.1194 7.18425 83.6342 7.34648 84.0554 7.62457V8.6211H84.032Z" fill="white"/>
<path d="M91.7309 10.3592C91.7309 12.1669 90.3502 13.5805 88.2676 13.5805C86.2785 13.5805 84.9213 12.1205 84.9213 10.3824C84.9213 8.71379 86.1381 7.16107 88.3144 7.16107C90.4204 7.16107 91.7309 8.69062 91.7309 10.3592ZM85.8807 10.4056C85.8807 11.8192 87.0039 12.7694 88.3378 12.7694C89.0164 12.7694 89.7418 12.4913 90.1864 12.0278C90.5842 11.5875 90.8182 10.9154 90.8182 10.3824C90.8182 9.33952 90.0226 8.04172 88.3612 8.04172C86.5827 8.01855 85.8807 9.33952 85.8807 10.4056Z" fill="white"/>
<path d="M94.7729 10.2202L98.1894 13.511H96.9492L93.7199 10.4287V13.511H92.8073V7.25377H93.7199V10.1275L96.3876 7.25377H97.5108L94.7729 10.2202Z" fill="white"/>
<path d="M104.32 13.511H103.384L102.542 11.657H99.8509L99.0553 13.511H98.1193L100.857 7.20742H101.489L104.32 13.511ZM102.191 10.8459L101.161 8.57474L100.225 10.8459H102.191ZM102.565 5.44612L101.044 6.81344H100.553L101.232 5.44612H102.565Z" fill="white"/>
<path d="M73.1039 18.1692C72.5657 17.6593 72.0509 17.5203 71.6296 17.5203C70.9978 17.5203 70.6234 17.8447 70.6234 18.2387C70.6234 18.7717 70.9978 18.9803 72.1913 19.6987C72.4487 19.861 72.7763 20.0695 73.0103 20.394C73.1975 20.6489 73.3613 20.9733 73.3613 21.4368C73.3613 22.4102 72.6359 23.1518 71.536 23.1518C70.9042 23.1518 70.3192 22.9432 69.8278 22.5724V21.4368C70.015 21.6686 70.5766 22.3638 71.536 22.3638C72.0041 22.3638 72.5189 22.0626 72.5189 21.5295C72.5189 20.9965 71.9806 20.6257 71.6764 20.4403C70.6702 19.8378 70.3894 19.6756 70.1086 19.3279C69.9214 19.073 69.8044 18.7949 69.8044 18.4009C69.8044 17.4508 70.5298 16.7323 71.6764 16.7323C72.1913 16.7323 72.7061 16.8946 73.1273 17.1727V18.1692H73.1039ZM70.5766 14.9247L71.536 15.8053L72.5189 14.9247H73.0805L72.2147 16.3615H70.9042L70.015 14.9247H70.5766Z" fill="white"/>
<path d="M76.263 19.7682L79.6795 23.0591H78.4392L75.2099 19.9768V23.0591H74.2973V16.8018H75.2099V19.6755L77.8776 16.8018H79.0008L76.263 19.7682Z" fill="white"/>
<path d="M85.9275 19.9073C85.9275 21.7149 84.5468 23.1286 82.4642 23.1286C80.4751 23.1286 79.1179 21.6686 79.1179 19.9305C79.1179 18.2619 80.3347 16.7092 82.511 16.7092C84.617 16.7092 85.9275 18.2387 85.9275 19.9073ZM80.0773 19.9305C80.0773 21.3441 81.2005 22.2943 82.5344 22.2943C83.213 22.2943 83.9384 22.0162 84.383 21.5527C84.7808 21.1124 85.0148 20.4403 85.0148 19.9073C85.0148 18.8644 84.2192 17.5666 82.5578 17.5666C80.7793 17.5435 80.0773 18.8876 80.0773 19.9305Z" fill="white"/>
<path d="M87.8932 22.2248H90.748V23.0359H86.9805V16.7787H87.8932V22.2248Z" fill="white"/>
<path d="M96.9726 23.0591H96.0366L95.1942 21.2051H92.5031L91.7075 23.0591H90.7714L93.4859 16.7555H94.1177L96.9726 23.0591ZM94.8431 20.394L93.8135 18.1228L92.8775 20.394H94.8431Z" fill="white"/>
<path d="M103.735 17.5898H101.068V19.4901H103.665V20.2781H101.068V22.248H103.829V23.0591H100.155V16.8018H103.735V17.5898Z" fill="white"/>
<path d="M106.894 19.7682L110.311 23.0591H109.071L105.841 19.9768V23.0591H104.929V16.8018H105.841V19.6755L108.509 16.8018H109.632L106.894 19.7682Z" fill="white"/>
<path d="M116.559 19.9073C116.559 21.7149 115.178 23.1286 113.096 23.1286C111.107 23.1286 109.749 21.6686 109.749 19.9305C109.749 18.2619 110.966 16.7092 113.142 16.7092C115.249 16.7092 116.559 18.2387 116.559 19.9073ZM110.709 19.9305C110.709 21.3441 111.832 22.2943 113.166 22.2943C113.845 22.2943 114.57 22.0162 115.015 21.5527C115.412 21.1124 115.646 20.4403 115.646 19.9073C115.646 18.8644 114.851 17.5666 113.189 17.5666C111.411 17.5435 110.709 18.8876 110.709 19.9305Z" fill="white"/>
<path d="M123.509 23.0591H122.737L118.501 18.2387V23.0591H117.659V16.8018H118.384L122.643 21.6686V16.8018H123.509V23.0591Z" fill="white"/>
<path d="M131.348 19.9073C131.348 21.7149 129.968 23.1286 127.885 23.1286C125.896 23.1286 124.539 21.6686 124.539 19.9305C124.539 18.2619 125.755 16.7092 127.932 16.7092C130.038 16.7092 131.348 18.2387 131.348 19.9073ZM125.475 19.9305C125.475 21.3441 126.598 22.2943 127.932 22.2943C128.61 22.2943 129.336 22.0162 129.78 21.5527C130.178 21.1124 130.412 20.4403 130.412 19.9073C130.412 18.8644 129.617 17.5666 127.955 17.5666C126.2 17.5435 125.475 18.8876 125.475 19.9305Z" fill="white"/>
<path d="M138.275 23.0591H137.362V18.1923L135.42 20.6257H135.256L133.29 18.1923V23.0591H132.378V16.8018H133.22L135.326 19.3743L137.432 16.8018H138.275V23.0591Z" fill="white"/>
<path d="M140.521 23.0591H139.609V16.8018H140.521V23.0591Z" fill="white"/>
<path d="M147.261 18.1924C146.606 17.8216 145.833 17.5666 145.085 17.5666C143.563 17.5666 142.581 18.679 142.581 19.9537C142.581 21.1124 143.423 22.3175 145.085 22.3175C145.88 22.3175 146.652 22.0626 147.331 21.6223V22.5956C146.606 22.9896 145.833 23.1518 145.038 23.1518C142.698 23.1518 141.645 21.4137 141.645 19.9537C141.645 18.2387 143.072 16.7323 145.061 16.7323C146.044 16.7323 146.863 17.08 147.284 17.2422V18.1924H147.261Z" fill="white"/>
<path d="M150.35 19.7683L153.766 23.0591H152.526L149.297 19.9537V23.0359H148.384V16.7787H149.297V19.6524L151.964 16.7787H153.088L150.35 19.7683Z" fill="white"/>
<path d="M159.897 23.0591H158.961L158.119 21.2051H155.428L154.632 23.0591H153.696L156.41 16.7555H157.042L159.897 23.0591ZM157.768 20.394L156.738 18.1228L155.802 20.394H157.768ZM158.142 14.9942L156.621 16.3615H156.13L156.808 14.9942H158.142Z" fill="white"/>
<path d="M72.3316 32.6304H72.121L69.4066 26.3268H70.3192L72.2146 30.73L74.1101 26.3268H74.9993L72.3316 32.6304Z" fill="white"/>
<path d="M79.7731 26.3268C80.5219 26.3268 81.1069 26.3268 81.6451 26.8598C81.9259 27.1379 82.1365 27.5319 82.1365 28.0881C82.1365 28.3893 82.0897 28.8992 81.5983 29.3627C81.2005 29.7335 80.7091 29.8725 79.7263 29.8725H79.0476V32.584H78.135V26.3268H79.7731ZM79.0476 27.1379V29.0846H79.7731C80.1241 29.0846 80.4985 29.0846 80.7793 28.9224C81.0367 28.7833 81.2005 28.482 81.2005 28.0881C81.2005 27.8563 81.1537 27.6014 80.9197 27.3928C80.6389 27.1379 80.3815 27.1379 79.7497 27.1379H79.0476Z" fill="white"/>
<path d="M84.4766 26.3268C84.7808 26.3268 85.1552 26.3499 85.553 26.5353C86.2317 26.8134 86.5359 27.4392 86.5359 28.0881C86.5359 28.8065 86.1615 29.3627 85.4828 29.6408C86.0678 30.0116 86.4189 30.591 86.8869 31.3557C87.1443 31.7961 87.3081 32.0046 87.7527 32.6072H86.6763C86.4657 32.3059 85.5764 30.9386 85.3892 30.6605C84.7574 29.8725 84.4532 29.8725 84.032 29.8725H83.798V32.6072H82.9088V26.3499H84.4766V26.3268ZM83.798 27.0915V29.0614H84.149C84.2894 29.0614 84.7808 29.0614 85.0382 28.9687C85.4594 28.8065 85.6466 28.4125 85.6466 28.0649C85.6466 27.7173 85.4594 27.3696 85.1552 27.2306C84.9212 27.1147 84.617 27.0915 84.0788 27.0915H83.798Z" fill="white"/>
<path d="M93.9071 32.6072H92.9711L92.1287 30.7532H89.4376L88.642 32.6072H87.7059L90.4204 26.3036H91.0522L93.9071 32.6072ZM91.7777 29.9421L90.748 27.6709L89.812 29.9421H91.7777Z" fill="white"/>
<path d="M95.6387 31.8192H99.6871V32.6072H93.9773L98.0256 27.1379H94.2347V26.3499H99.6871L95.6387 31.8192Z" fill="white"/>
<path d="M104.086 27.1379H101.419V29.0382H104.016V29.8262H101.419V31.7729H104.18V32.584H100.506V26.3268H104.086V27.1379Z" fill="white"/>
<path d="M33.112 7.27695H51.5986V13.0939H42.3319V16.8019H51.1072V22.5956H42.3319V26.7439H51.8092V32.7462H33.112V7.27695Z" fill="white"/>
<path d="M22.5349 17.5203L25.9982 9.01507C27.5192 9.06142 28.7829 9.5481 31.0996 10.9386V8.78332C29.2275 7.6941 27.3788 7.18425 25.5068 7.18425C21.6925 7.18425 18.5802 10.1738 18.5802 13.9282C18.5802 15.9676 19.2588 17.3349 20.2884 18.3082L16.0295 28.7601L7.18402 7.25377H5.24176L15.7253 32.9548H16.2635L21.7627 19.4206C25.1558 21.3905 30.0465 21.6686 30.0465 26.3963C30.0465 29.27 27.8235 31.4716 24.9452 31.4716C23.0731 31.4716 21.5521 30.7995 18.861 28.7601V31.0776C20.9904 32.5608 23.0731 33.3256 25.0622 33.3256C28.9935 33.3256 32.0824 30.2665 32.0824 26.35C32.0824 19.7451 25.8344 19.7683 22.5349 17.5203ZM20.5926 13.8586C20.5926 11.6802 21.9733 9.9189 23.9623 9.27L21.1776 16.1298C20.8032 15.5272 20.5926 14.7856 20.5926 13.8586Z" fill="white"/>
<path d="M29.9529 3.87022H21.0372V5.67787H29.9529V3.87022Z" fill="white"/>
</svg>
