<?xml version="1.0" encoding="UTF-8"?>
<!-- Generator: Adobe Illustrator 26.3.1, SVG Export Plug-In . SVG Version: 6.00 Build 0)  -->
<svg version="1.1" id="Layer_1" xmlns="http://www.w3.org/2000/svg" xmlns:xlink="http://www.w3.org/1999/xlink" x="0px" y="0px" viewBox="0 0 29 47" style="enable-background:new 0 0 29 47;" xml:space="preserve">
<style type="text/css">
	.st0{fill:#00A886;stroke:#000000;stroke-miterlimit:10;}
	.st1{fill:#007F6B;}
</style>
<path class="st0" d="M14.1,1C7.8,1,4.9,3.3,2.7,5.3C1.9,6,0.6,7.6,1.1,9.1c0.6,2,3,3,5,2.1c2.2-1,4.6-2.5,6.7-2.4  c3.7,0.1,5.5,1.9,5.5,4.6c0,2.6-1.7,4.9-4.1,7.9c-2.9,3.5-4.3,6.8-4.3,10.2c0,0,0,0,0,0c0,1.5,1.3,2.7,2.9,2.7h2.7  c1.6,0,2.8-1.1,2.9-2.6c0.1-2.6,0.8-4.6,3.5-7.8C24.8,20.5,28,17,28,12C28,6.8,23.4,1,14.1,1L14.1,1z"/>
<g>
	<path class="st1" d="M27.5,12.1c0,4.9-3.1,8.3-5.8,11.5c-2.6,3.1-3.2,5.1-3.4,7.6c-0.1,1.4-1.3,2.5-2.8,2.5H13   c-1.1,0-2-0.5-2.4-1.5c0.2,0.1,0.4,0.1,0.7,0.1h2.6c1.5,0,2.7-1.1,2.8-2.5c0.1-2.5,0.7-4.5,3.4-7.6c2.7-3.2,5.8-6.7,5.8-11.5   c0-2.6-1.1-5.3-3.3-7.3C25.8,5.5,27.5,8.9,27.5,12.1L27.5,12.1z"/>
</g>
<path class="st0" d="M14.5,37.4c-2.5,0-4.3,1.9-4.3,4.6c0,2.5,1.6,4.5,4.3,4.5c2.7,0,4.3-1.9,4.3-4.5C18.8,39.3,17.1,37.4,14.5,37.4  L14.5,37.4z"/>
<g>
	<path class="st1" d="M18.4,42c0,2.3-1.5,4-3.9,4c-1.8,0-3-1-3.6-2.3c0.5,0.3,1.1,0.4,1.8,0.4c2.4,0,3.9-1.7,3.9-4   c0-0.6-0.1-1.2-0.3-1.7C17.6,38.9,18.4,40.3,18.4,42L18.4,42z"/>
</g>
</svg>