<svg width="365" height="35" viewBox="0 0 365 35" fill="none" xmlns="http://www.w3.org/2000/svg">
<path d="M5.38392 25.111C5.92648 25.111 6.46904 25.2579 6.96987 25.5309C7.4707 25.8248 7.88806 26.2237 8.18021 26.7486C8.47236 27.2735 8.61843 27.8194 8.61843 28.3863C8.61843 28.9532 8.47236 29.4991 8.18021 30.003C7.88806 30.5069 7.49157 30.9268 6.96987 31.1997C6.46904 31.4937 5.92648 31.6407 5.36305 31.6407C4.79962 31.6407 4.25705 31.4937 3.75622 31.1997C3.2554 30.9058 2.85891 30.5069 2.54589 30.003C2.25374 29.4781 2.10767 28.9322 2.10767 28.3863C2.10767 27.8194 2.25374 27.2735 2.54589 26.7486C2.83804 26.2237 3.23453 25.8248 3.75622 25.5309C4.29879 25.2579 4.84135 25.111 5.38392 25.111Z" fill="url(#paint0_linear_54_124)"/>
<path d="M16.2142 25.111C16.7568 25.111 17.2994 25.2579 17.8002 25.5309C18.3219 25.8248 18.7184 26.2237 19.0105 26.7486C19.3027 27.2735 19.4488 27.8194 19.4488 28.3863C19.4488 28.9532 19.3027 29.4991 19.0105 30.003C18.7184 30.5069 18.3219 30.9268 17.8002 31.1997C17.2785 31.4937 16.7568 31.6407 16.1934 31.6407C15.6299 31.6407 15.0874 31.4937 14.5865 31.1997C14.0857 30.9058 13.6684 30.5069 13.3762 30.003C13.0841 29.4781 12.938 28.9322 12.938 28.3863C12.938 27.8194 13.0841 27.2735 13.3762 26.7486C13.6684 26.2237 14.0649 25.8248 14.5865 25.5309C15.1291 25.2579 15.6717 25.111 16.2142 25.111Z" fill="url(#paint1_linear_54_124)"/>
<path d="M16.2142 14.2141C16.7568 14.2141 17.2994 14.3611 17.8002 14.6341C18.3219 14.928 18.7184 15.3269 19.0105 15.8518C19.3027 16.3767 19.4488 16.9226 19.4488 17.4895C19.4488 18.0564 19.3027 18.6023 19.0105 19.1062C18.7184 19.6101 18.3219 20.03 17.8002 20.3239C17.2785 20.6179 16.7568 20.7648 16.1934 20.7648C15.6299 20.7648 15.0874 20.6179 14.5865 20.3239C14.0857 20.03 13.6684 19.6311 13.3762 19.1062C13.0841 18.5813 12.938 18.0564 12.938 17.4895C12.938 16.9226 13.0841 16.3767 13.3762 15.8518C13.6684 15.3269 14.0649 14.928 14.5865 14.6341C15.1291 14.3611 15.6717 14.2141 16.2142 14.2141Z" fill="url(#paint2_linear_54_124)"/>
<path d="M16.2142 3.33832C16.7568 3.33832 17.2994 3.48529 17.8002 3.75823C18.3219 4.03118 18.7184 4.4511 19.0105 4.95499C19.3027 5.47989 19.4488 6.02578 19.4488 6.59267C19.4488 7.15955 19.3027 7.70544 19.0105 8.20934C18.7184 8.73424 18.3219 9.13316 17.8002 9.4271C17.2785 9.72104 16.7568 9.86801 16.1934 9.86801C15.6299 9.86801 15.0874 9.72104 14.5865 9.4271C14.0857 9.13316 13.6684 8.73424 13.3762 8.20934C13.0841 7.70544 12.938 7.15955 12.938 6.59267C12.938 6.02578 13.0841 5.47989 13.3762 4.95499C13.6684 4.4301 14.0649 4.03118 14.5865 3.75823C15.1291 3.48529 15.6717 3.33832 16.2142 3.33832Z" fill="url(#paint3_linear_54_124)"/>
<path d="M31.5939 3.33832C32.1364 3.33832 32.679 3.48529 33.1798 3.75823C33.6807 4.03118 34.098 4.4511 34.3902 4.95499C34.6823 5.47989 34.8284 6.02578 34.8284 6.59267C34.8284 7.15955 34.6823 7.70544 34.3902 8.20934C34.098 8.73424 33.7015 9.13316 33.1798 9.4271C32.679 9.72104 32.1364 9.86801 31.573 9.86801C31.0096 9.86801 30.467 9.72104 29.9662 9.4271C29.4654 9.13316 29.0689 8.73424 28.7559 8.20934C28.4637 7.70544 28.3176 7.15955 28.3176 6.59267C28.3176 6.02578 28.4637 5.47989 28.7559 4.95499C29.048 4.4301 29.4445 4.03118 29.9662 3.75823C30.5088 3.48529 31.0304 3.33832 31.5939 3.33832Z" fill="url(#paint4_linear_54_124)"/>
<path d="M42.4034 3.33832C42.946 3.33832 43.4886 3.48529 43.9894 3.75823C44.5111 4.03118 44.9076 4.4511 45.1997 4.95499C45.4919 5.47989 45.638 6.02578 45.638 6.59267C45.638 7.15955 45.4919 7.70544 45.1997 8.20934C44.9076 8.73424 44.5111 9.13316 43.9894 9.4271C43.4677 9.72104 42.946 9.86801 42.3826 9.86801C41.8191 9.86801 41.2766 9.72104 40.7758 9.4271C40.2749 9.13316 39.8576 8.73424 39.5654 8.20934C39.2733 7.70544 39.1272 7.15955 39.1272 6.59267C39.1272 6.02578 39.2733 5.47989 39.5654 4.95499C39.8576 4.4301 40.2541 4.03118 40.7758 3.75823C41.3392 3.48529 41.8609 3.33832 42.4034 3.33832Z" fill="url(#paint5_linear_54_124)"/>
<path d="M57.7831 14.2141C58.3256 14.2141 58.8682 14.3611 59.369 14.6341C59.8699 14.928 60.2872 15.3269 60.5794 15.8518C60.8715 16.3767 61.0176 16.9226 61.0176 17.4895C61.0176 18.0564 60.8715 18.6023 60.5794 19.1062C60.2872 19.6101 59.8907 20.03 59.369 20.3239C58.8682 20.6179 58.3256 20.7648 57.7622 20.7648C57.1988 20.7648 56.6562 20.6179 56.1554 20.3239C55.6546 20.03 55.2581 19.6311 54.9451 19.1062C54.6529 18.5813 54.5068 18.0564 54.5068 17.4895C54.5068 16.9226 54.6529 16.3767 54.9451 15.8518C55.2372 15.3269 55.6337 14.928 56.1554 14.6341C56.698 14.3611 57.2405 14.2141 57.7831 14.2141Z" fill="url(#paint6_linear_54_124)"/>
<path d="M68.6134 14.2141C69.156 14.2141 69.6985 14.3611 70.1994 14.6341C70.7211 14.928 71.1175 15.3269 71.4097 15.8518C71.7018 16.3767 71.8479 16.9226 71.8479 17.4895C71.8479 18.0564 71.7018 18.6023 71.4097 19.1062C71.1175 19.6101 70.7211 20.03 70.1994 20.3239C69.6777 20.6179 69.156 20.7648 68.5925 20.7648C68.0291 20.7648 67.4865 20.6179 66.9857 20.3239C66.4849 20.03 66.0675 19.6311 65.7754 19.1062C65.4832 18.5813 65.3372 18.0564 65.3372 17.4895C65.3372 16.9226 65.4832 16.3767 65.7754 15.8518C66.0675 15.3269 66.464 14.928 66.9857 14.6341C67.5283 14.3611 68.0708 14.2141 68.6134 14.2141Z" fill="url(#paint7_linear_54_124)"/>
<path d="M68.6134 3.33832C69.156 3.33832 69.6985 3.48529 70.1994 3.75823C70.7211 4.03118 71.1175 4.4511 71.4097 4.95499C71.7018 5.47989 71.8479 6.02578 71.8479 6.59267C71.8479 7.15955 71.7018 7.70544 71.4097 8.20934C71.1175 8.73424 70.7211 9.13316 70.1994 9.4271C69.6777 9.72104 69.156 9.86801 68.5925 9.86801C68.0291 9.86801 67.4865 9.72104 66.9857 9.4271C66.4849 9.13316 66.0675 8.73424 65.7754 8.20934C65.4832 7.70544 65.3372 7.15955 65.3372 6.59267C65.3372 6.02578 65.4832 5.47989 65.7754 4.95499C66.0675 4.4301 66.464 4.03118 66.9857 3.75823C67.5283 3.48529 68.0708 3.33832 68.6134 3.33832Z" fill="url(#paint8_linear_54_124)"/>
<path d="M83.993 25.111C84.5356 25.111 85.0782 25.2579 85.579 25.5309C86.0798 25.8248 86.4972 26.2237 86.7893 26.7486C87.0815 27.2735 87.2276 27.8194 87.2276 28.3863C87.2276 28.9532 87.0815 29.4991 86.7893 30.003C86.4972 30.5069 86.1007 30.9268 85.579 31.1997C85.0782 31.4937 84.5356 31.6407 83.9722 31.6407C83.4087 31.6407 82.8662 31.4937 82.3654 31.1997C81.8645 30.9058 81.468 30.5069 81.155 30.003C80.8629 29.4781 80.7168 28.9322 80.7168 28.3863C80.7168 27.8194 80.8629 27.2735 81.155 26.7486C81.4472 26.2237 81.8437 25.8248 82.3654 25.5309C82.9079 25.2579 83.4296 25.111 83.993 25.111Z" fill="url(#paint9_linear_54_124)"/>
<path d="M136.392 25.111C136.935 25.111 137.477 25.2579 137.978 25.5309C138.479 25.8248 138.896 26.2237 139.188 26.7486C139.481 27.2735 139.627 27.8194 139.627 28.3863C139.627 28.9532 139.481 29.4991 139.188 30.003C138.896 30.5069 138.5 30.9268 137.978 31.1997C137.477 31.4937 136.935 31.6407 136.371 31.6407C135.808 31.6407 135.265 31.4937 134.765 31.1997C134.264 30.9058 133.867 30.5069 133.554 30.003C133.262 29.4781 133.116 28.9322 133.116 28.3863C133.116 27.8194 133.262 27.2735 133.554 26.7486C133.846 26.2237 134.243 25.8248 134.765 25.5309C135.307 25.2579 135.829 25.111 136.392 25.111Z" fill="url(#paint10_linear_54_124)"/>
<path d="M147.202 25.111C147.744 25.111 148.287 25.2579 148.788 25.5309C149.309 25.8248 149.706 26.2237 149.998 26.7486C150.29 27.2735 150.436 27.8194 150.436 28.3863C150.436 28.9532 150.29 29.4991 149.998 30.003C149.706 30.5069 149.309 30.9268 148.788 31.1997C148.266 31.4937 147.744 31.6407 147.181 31.6407C146.617 31.6407 146.075 31.4937 145.574 31.1997C145.073 30.9058 144.656 30.5069 144.364 30.003C144.072 29.4781 143.926 28.9322 143.926 28.3863C143.926 27.8194 144.072 27.2735 144.364 26.7486C144.656 26.2237 145.052 25.8248 145.574 25.5309C146.138 25.2579 146.659 25.111 147.202 25.111Z" fill="url(#paint11_linear_54_124)"/>
<path d="M147.202 14.2141C147.744 14.2141 148.287 14.3611 148.788 14.6341C149.309 14.928 149.706 15.3269 149.998 15.8518C150.29 16.3767 150.436 16.9226 150.436 17.4895C150.436 18.0564 150.29 18.6023 149.998 19.1062C149.706 19.6101 149.309 20.03 148.788 20.3239C148.266 20.6179 147.744 20.7648 147.181 20.7648C146.617 20.7648 146.075 20.6179 145.574 20.3239C145.073 20.03 144.656 19.6311 144.364 19.1062C144.072 18.5813 143.926 18.0564 143.926 17.4895C143.926 16.9226 144.072 16.3767 144.364 15.8518C144.656 15.3269 145.052 14.928 145.574 14.6341C146.138 14.3611 146.659 14.2141 147.202 14.2141Z" fill="url(#paint12_linear_54_124)"/>
<path d="M147.202 3.33832C147.744 3.33832 148.287 3.48529 148.788 3.75823C149.309 4.03118 149.706 4.4511 149.998 4.95499C150.29 5.47989 150.436 6.02578 150.436 6.59267C150.436 7.15955 150.29 7.70544 149.998 8.20934C149.706 8.73424 149.309 9.13316 148.788 9.4271C148.266 9.72104 147.744 9.86801 147.181 9.86801C146.617 9.86801 146.075 9.72104 145.574 9.4271C145.073 9.13316 144.656 8.73424 144.364 8.20934C144.072 7.70544 143.926 7.15955 143.926 6.59267C143.926 6.02578 144.072 5.47989 144.364 4.95499C144.656 4.4301 145.052 4.03118 145.574 3.75823C146.138 3.48529 146.659 3.33832 147.202 3.33832Z" fill="url(#paint13_linear_54_124)"/>
<path d="M162.581 14.2141C163.124 14.2141 163.666 14.3611 164.167 14.6341C164.668 14.928 165.085 15.3269 165.377 15.8518C165.67 16.3767 165.816 16.9226 165.816 17.4895C165.816 18.0564 165.67 18.6023 165.377 19.1062C165.085 19.6101 164.689 20.03 164.167 20.3239C163.666 20.6179 163.124 20.7648 162.56 20.7648C161.997 20.7648 161.454 20.6179 160.953 20.3239C160.453 20.03 160.056 19.6311 159.743 19.1062C159.451 18.5813 159.305 18.0564 159.305 17.4895C159.305 16.9226 159.451 16.3767 159.743 15.8518C160.035 15.3269 160.432 14.928 160.953 14.6341C161.496 14.3611 162.039 14.2141 162.581 14.2141Z" fill="url(#paint14_linear_54_124)"/>
<path d="M173.412 3.33832C173.954 3.33832 174.497 3.48529 174.998 3.75823C175.519 4.03118 175.916 4.4511 176.208 4.95499C176.5 5.47989 176.646 6.02578 176.646 6.59267C176.646 7.15955 176.5 7.70544 176.208 8.20934C175.916 8.73424 175.519 9.13316 174.998 9.4271C174.476 9.72104 173.954 9.86801 173.391 9.86801C172.827 9.86801 172.285 9.72104 171.784 9.4271C171.283 9.13316 170.866 8.73424 170.574 8.20934C170.282 7.70544 170.135 7.15955 170.135 6.59267C170.135 6.02578 170.282 5.47989 170.574 4.95499C170.866 4.4301 171.262 4.03118 171.784 3.75823C172.327 3.48529 172.869 3.33832 173.412 3.33832Z" fill="url(#paint15_linear_54_124)"/>
<path d="M199.551 3.43134C200.093 3.43134 200.636 3.57831 201.137 3.85125C201.638 4.14519 202.055 4.54411 202.347 5.06901C202.639 5.5939 202.785 6.13979 202.785 6.70668C202.785 7.27357 202.639 7.81946 202.347 8.32336C202.055 8.82726 201.659 9.24717 201.137 9.52012C200.636 9.81406 200.093 9.96103 199.53 9.96103C198.967 9.96103 198.424 9.81406 197.923 9.52012C197.422 9.22618 197.026 8.82726 196.713 8.32336C196.421 7.79846 196.275 7.25257 196.275 6.70668C196.275 6.13979 196.421 5.5939 196.713 5.06901C197.005 4.54411 197.402 4.14519 197.923 3.85125C198.487 3.57831 199.008 3.43134 199.551 3.43134Z" fill="url(#paint16_linear_54_124)"/>
<path d="M199.551 21.9608C200.093 21.9608 200.636 22.1077 201.137 22.3807C201.638 22.6746 202.055 23.0735 202.347 23.5984C202.639 24.1233 202.785 24.6692 202.785 25.2361C202.785 25.803 202.639 26.3489 202.347 26.8528C202.055 27.3567 201.659 27.7766 201.137 28.0495C200.636 28.3435 200.093 28.4904 199.53 28.4904C198.967 28.4904 198.424 28.3435 197.923 28.0495C197.422 27.7556 197.026 27.3567 196.713 26.8528C196.421 26.3279 196.275 25.782 196.275 25.2361C196.275 24.6692 196.421 24.1233 196.713 23.5984C197.005 23.0735 197.402 22.6746 197.923 22.3807C198.487 22.1077 199.008 21.9608 199.551 21.9608Z" fill="url(#paint17_linear_54_124)"/>
<path d="M252 14.2141C252.542 14.2141 253.085 14.3611 253.586 14.6341C254.108 14.928 254.504 15.3269 254.796 15.8518C255.088 16.3767 255.234 16.9226 255.234 17.4895C255.234 18.0564 255.088 18.6023 254.796 19.1062C254.504 19.6101 254.108 20.03 253.586 20.3239C253.064 20.6179 252.542 20.7648 251.979 20.7648C251.416 20.7648 250.873 20.6179 250.372 20.3239C249.871 20.03 249.454 19.6311 249.162 19.1062C248.87 18.5813 248.724 18.0564 248.724 17.4895C248.724 16.9226 248.87 16.3767 249.162 15.8518C249.454 15.3269 249.851 14.928 250.372 14.6341C250.936 14.3611 251.457 14.2141 252 14.2141Z" fill="url(#paint18_linear_54_124)"/>
<path d="M252 3.33832C252.542 3.33832 253.085 3.48529 253.586 3.75823C254.108 4.03118 254.504 4.4511 254.796 4.95499C255.088 5.47989 255.234 6.02578 255.234 6.59267C255.234 7.15955 255.088 7.70544 254.796 8.20934C254.504 8.73424 254.108 9.13316 253.586 9.4271C253.064 9.72104 252.542 9.86801 251.979 9.86801C251.416 9.86801 250.873 9.72104 250.372 9.4271C249.871 9.13316 249.454 8.73424 249.162 8.20934C248.87 7.70544 248.724 7.15955 248.724 6.59267C248.724 6.02578 248.87 5.47989 249.162 4.95499C249.454 4.4301 249.851 4.03118 250.372 3.75823C250.936 3.48529 251.457 3.33832 252 3.33832Z" fill="url(#paint19_linear_54_124)"/>
<path d="M267.38 14.2141C267.922 14.2141 268.465 14.3611 268.965 14.6341C269.466 14.928 269.884 15.3269 270.176 15.8518C270.468 16.3767 270.614 16.9226 270.614 17.4895C270.614 18.0564 270.468 18.6023 270.176 19.1062C269.884 19.6101 269.487 20.03 268.965 20.3239C268.465 20.6179 267.922 20.7648 267.359 20.7648C266.795 20.7648 266.253 20.6179 265.752 20.3239C265.251 20.03 264.855 19.6311 264.541 19.1062C264.249 18.5813 264.103 18.0564 264.103 17.4895C264.103 16.9226 264.249 16.3767 264.541 15.8518C264.834 15.3269 265.23 14.928 265.752 14.6341C266.294 14.3611 266.837 14.2141 267.38 14.2141Z" fill="url(#paint20_linear_54_124)"/>
<path d="M267.38 3.33832C267.922 3.33832 268.465 3.48529 268.965 3.75823C269.466 4.03118 269.884 4.4511 270.176 4.95499C270.468 5.47989 270.614 6.02578 270.614 6.59267C270.614 7.15955 270.468 7.70544 270.176 8.20934C269.884 8.73424 269.487 9.13316 268.965 9.4271C268.465 9.72104 267.922 9.86801 267.359 9.86801C266.795 9.86801 266.253 9.72104 265.752 9.4271C265.251 9.13316 264.855 8.73424 264.541 8.20934C264.249 7.70544 264.103 7.15955 264.103 6.59267C264.103 6.02578 264.249 5.47989 264.541 4.95499C264.834 4.4301 265.23 4.03118 265.752 3.75823C266.294 3.48529 266.837 3.33832 267.38 3.33832Z" fill="url(#paint21_linear_54_124)"/>
<path d="M293.569 14.2141C294.111 14.2141 294.654 14.3611 295.155 14.6341C295.656 14.928 296.073 15.3269 296.365 15.8518C296.657 16.3767 296.803 16.9226 296.803 17.4895C296.803 18.0564 296.657 18.6023 296.365 19.1062C296.073 19.6101 295.676 20.03 295.155 20.3239C294.654 20.6179 294.111 20.7648 293.548 20.7648C292.984 20.7648 292.442 20.6179 291.941 20.3239C291.44 20.03 291.044 19.6311 290.731 19.1062C290.439 18.5813 290.292 18.0564 290.292 17.4895C290.292 16.9226 290.439 16.3767 290.731 15.8518C291.023 15.3269 291.419 14.928 291.941 14.6341C292.504 14.3611 293.026 14.2141 293.569 14.2141Z" fill="url(#paint22_linear_54_124)"/>
<path d="M304.399 14.2141C304.942 14.2141 305.484 14.3611 305.985 14.6341C306.507 14.928 306.903 15.3269 307.195 15.8518C307.487 16.3767 307.634 16.9226 307.634 17.4895C307.634 18.0564 307.487 18.6023 307.195 19.1062C306.903 19.6101 306.507 20.03 305.985 20.3239C305.463 20.6179 304.942 20.7648 304.378 20.7648C303.815 20.7648 303.272 20.6179 302.771 20.3239C302.271 20.03 301.853 19.6311 301.561 19.1062C301.269 18.5813 301.123 18.0564 301.123 17.4895C301.123 16.9226 301.269 16.3767 301.561 15.8518C301.853 15.3269 302.25 14.928 302.771 14.6341C303.335 14.3611 303.856 14.2141 304.399 14.2141Z" fill="url(#paint23_linear_54_124)"/>
<path d="M304.399 3.33832C304.942 3.33832 305.484 3.48529 305.985 3.75823C306.507 4.03118 306.903 4.4511 307.195 4.95499C307.487 5.47989 307.634 6.02578 307.634 6.59267C307.634 7.15955 307.487 7.70544 307.195 8.20934C306.903 8.73424 306.507 9.13316 305.985 9.4271C305.463 9.72104 304.942 9.86801 304.378 9.86801C303.815 9.86801 303.272 9.72104 302.771 9.4271C302.271 9.13316 301.853 8.73424 301.561 8.20934C301.269 7.70544 301.123 7.15955 301.123 6.59267C301.123 6.02578 301.269 5.47989 301.561 4.95499C301.853 4.4301 302.25 4.03118 302.771 3.75823C303.335 3.48529 303.856 3.33832 304.399 3.33832Z" fill="url(#paint24_linear_54_124)"/>
<path d="M319.779 14.2141C320.321 14.2141 320.864 14.3611 321.365 14.6341C321.865 14.928 322.283 15.3269 322.575 15.8518C322.867 16.3767 323.013 16.9226 323.013 17.4895C323.013 18.0564 322.867 18.6023 322.575 19.1062C322.283 19.6101 321.886 20.03 321.365 20.3239C320.864 20.6179 320.321 20.7648 319.758 20.7648C319.194 20.7648 318.652 20.6179 318.151 20.3239C317.65 20.03 317.254 19.6311 316.941 19.1062C316.649 18.5813 316.502 18.0564 316.502 17.4895C316.502 16.9226 316.649 16.3767 316.941 15.8518C317.233 15.3269 317.629 14.928 318.151 14.6341C318.694 14.3611 319.236 14.2141 319.779 14.2141Z" fill="url(#paint25_linear_54_124)"/>
<path d="M319.779 3.33832C320.321 3.33832 320.864 3.48529 321.365 3.75823C321.865 4.03118 322.283 4.4511 322.575 4.95499C322.867 5.47989 323.013 6.02578 323.013 6.59267C323.013 7.15955 322.867 7.70544 322.575 8.20934C322.283 8.73424 321.886 9.13316 321.365 9.4271C320.864 9.72104 320.321 9.86801 319.758 9.86801C319.194 9.86801 318.652 9.72104 318.151 9.4271C317.65 9.13316 317.254 8.73424 316.941 8.20934C316.649 7.70544 316.502 7.15955 316.502 6.59267C316.502 6.02578 316.649 5.47989 316.941 4.95499C317.233 4.4301 317.629 4.03118 318.151 3.75823C318.694 3.48529 319.236 3.33832 319.779 3.33832Z" fill="url(#paint26_linear_54_124)"/>
<path d="M345.968 14.2141C346.51 14.2141 347.053 14.3611 347.554 14.6341C348.054 14.928 348.472 15.3269 348.764 15.8518C349.056 16.3767 349.202 16.9226 349.202 17.4895C349.202 18.0564 349.056 18.6023 348.764 19.1062C348.472 19.6101 348.075 20.03 347.554 20.3239C347.053 20.6179 346.51 20.7648 345.947 20.7648C345.383 20.7648 344.841 20.6179 344.34 20.3239C343.839 20.03 343.443 19.6311 343.13 19.1062C342.838 18.5813 342.691 18.0564 342.691 17.4895C342.691 16.9226 342.838 16.3767 343.13 15.8518C343.422 15.3269 343.818 14.928 344.34 14.6341C344.903 14.3611 345.425 14.2141 345.968 14.2141Z" fill="url(#paint27_linear_54_124)"/>
<path d="M345.968 3.33832C346.51 3.33832 347.053 3.48529 347.554 3.75823C348.054 4.03118 348.472 4.4511 348.764 4.95499C349.056 5.47989 349.202 6.02578 349.202 6.59267C349.202 7.15955 349.056 7.70544 348.764 8.20934C348.472 8.73424 348.075 9.13316 347.554 9.4271C347.053 9.72104 346.51 9.86801 345.947 9.86801C345.383 9.86801 344.841 9.72104 344.34 9.4271C343.839 9.13316 343.443 8.73424 343.13 8.20934C342.838 7.70544 342.691 7.15955 342.691 6.59267C342.691 6.02578 342.838 5.47989 343.13 4.95499C343.422 4.4301 343.818 4.03118 344.34 3.75823C344.903 3.48529 345.425 3.33832 345.968 3.33832Z" fill="url(#paint28_linear_54_124)"/>
<path d="M361.512 25.111C362.054 25.111 362.597 25.2579 363.098 25.5309C363.619 25.8248 364.016 26.2237 364.308 26.7486C364.6 27.2735 364.746 27.8194 364.746 28.3863C364.746 28.9532 364.6 29.4991 364.308 30.003C364.016 30.5069 363.619 30.9268 363.098 31.1997C362.576 31.4937 362.054 31.6407 361.491 31.6407C360.927 31.6407 360.385 31.4937 359.884 31.1997C359.383 30.9058 358.966 30.5069 358.674 30.003C358.381 29.4781 358.235 28.9322 358.235 28.3863C358.235 27.8194 358.381 27.2735 358.674 26.7486C358.966 26.2237 359.362 25.8248 359.884 25.5309C360.447 25.2579 360.969 25.111 361.512 25.111Z" fill="url(#paint29_linear_54_124)"/>
<defs>
<linearGradient id="paint0_linear_54_124" x1="2.38702" y1="29.6345" x2="8.39043" y2="27.1629" gradientUnits="userSpaceOnUse">
<stop stop-color="#12052E"/>
<stop offset="0.00122727" stop-color="#12052E"/>
<stop offset="0.3026" stop-color="#1D404E"/>
<stop offset="0.5829" stop-color="#1F6E6A"/>
<stop offset="0.7839" stop-color="#158E7C"/>
<stop offset="0.8863" stop-color="#099C83"/>
<stop offset="1" stop-color="#099C83"/>
</linearGradient>
<linearGradient id="paint1_linear_54_124" x1="13.2137" y1="29.634" x2="19.2139" y2="27.1638" gradientUnits="userSpaceOnUse">
<stop stop-color="#12052E"/>
<stop offset="0.00122727" stop-color="#12052E"/>
<stop offset="0.3026" stop-color="#1D404E"/>
<stop offset="0.5829" stop-color="#1F6E6A"/>
<stop offset="0.7839" stop-color="#158E7C"/>
<stop offset="0.8863" stop-color="#099C83"/>
<stop offset="1" stop-color="#099C83"/>
</linearGradient>
<linearGradient id="paint2_linear_54_124" x1="13.2143" y1="18.7431" x2="19.2148" y2="16.2727" gradientUnits="userSpaceOnUse">
<stop stop-color="#12052E"/>
<stop offset="0.00122727" stop-color="#12052E"/>
<stop offset="0.3026" stop-color="#1D404E"/>
<stop offset="0.5829" stop-color="#1F6E6A"/>
<stop offset="0.7839" stop-color="#158E7C"/>
<stop offset="0.8863" stop-color="#099C83"/>
<stop offset="1" stop-color="#099C83"/>
</linearGradient>
<linearGradient id="paint3_linear_54_124" x1="13.2147" y1="7.85326" x2="19.2162" y2="5.38251" gradientUnits="userSpaceOnUse">
<stop stop-color="#12052E"/>
<stop offset="0.00122727" stop-color="#12052E"/>
<stop offset="0.3026" stop-color="#1D404E"/>
<stop offset="0.5829" stop-color="#1F6E6A"/>
<stop offset="0.7839" stop-color="#158E7C"/>
<stop offset="0.8863" stop-color="#099C83"/>
<stop offset="1" stop-color="#099C83"/>
</linearGradient>
<linearGradient id="paint4_linear_54_124" x1="28.5874" y1="7.85372" x2="34.5921" y2="5.38168" gradientUnits="userSpaceOnUse">
<stop stop-color="#12052E"/>
<stop offset="0.00122727" stop-color="#12052E"/>
<stop offset="0.3026" stop-color="#1D404E"/>
<stop offset="0.5829" stop-color="#1F6E6A"/>
<stop offset="0.7839" stop-color="#158E7C"/>
<stop offset="0.8863" stop-color="#099C83"/>
<stop offset="1" stop-color="#099C83"/>
</linearGradient>
<linearGradient id="paint5_linear_54_124" x1="39.4142" y1="7.85326" x2="45.4157" y2="5.38251" gradientUnits="userSpaceOnUse">
<stop stop-color="#12052E"/>
<stop offset="0.00122727" stop-color="#12052E"/>
<stop offset="0.3026" stop-color="#1D404E"/>
<stop offset="0.5829" stop-color="#1F6E6A"/>
<stop offset="0.7839" stop-color="#158E7C"/>
<stop offset="0.8863" stop-color="#099C83"/>
<stop offset="1" stop-color="#099C83"/>
</linearGradient>
<linearGradient id="paint6_linear_54_124" x1="54.7866" y1="18.7436" x2="60.7903" y2="16.2719" gradientUnits="userSpaceOnUse">
<stop stop-color="#12052E"/>
<stop offset="0.00122727" stop-color="#12052E"/>
<stop offset="0.3026" stop-color="#1D404E"/>
<stop offset="0.5829" stop-color="#1F6E6A"/>
<stop offset="0.7839" stop-color="#158E7C"/>
<stop offset="0.8863" stop-color="#099C83"/>
<stop offset="1" stop-color="#099C83"/>
</linearGradient>
<linearGradient id="paint7_linear_54_124" x1="65.6132" y1="18.7431" x2="71.6138" y2="16.2728" gradientUnits="userSpaceOnUse">
<stop stop-color="#12052E"/>
<stop offset="0.00122727" stop-color="#12052E"/>
<stop offset="0.3026" stop-color="#1D404E"/>
<stop offset="0.5829" stop-color="#1F6E6A"/>
<stop offset="0.7839" stop-color="#158E7C"/>
<stop offset="0.8863" stop-color="#099C83"/>
<stop offset="1" stop-color="#099C83"/>
</linearGradient>
<linearGradient id="paint8_linear_54_124" x1="65.6136" y1="7.85326" x2="71.6151" y2="5.38251" gradientUnits="userSpaceOnUse">
<stop stop-color="#12052E"/>
<stop offset="0.00122727" stop-color="#12052E"/>
<stop offset="0.3026" stop-color="#1D404E"/>
<stop offset="0.5829" stop-color="#1F6E6A"/>
<stop offset="0.7839" stop-color="#158E7C"/>
<stop offset="0.8863" stop-color="#099C83"/>
<stop offset="1" stop-color="#099C83"/>
</linearGradient>
<linearGradient id="paint9_linear_54_124" x1="80.9854" y1="29.6345" x2="86.9888" y2="27.1629" gradientUnits="userSpaceOnUse">
<stop stop-color="#12052E"/>
<stop offset="0.00122727" stop-color="#12052E"/>
<stop offset="0.3026" stop-color="#1D404E"/>
<stop offset="0.5829" stop-color="#1F6E6A"/>
<stop offset="0.7839" stop-color="#158E7C"/>
<stop offset="0.8863" stop-color="#099C83"/>
<stop offset="1" stop-color="#099C83"/>
</linearGradient>
<linearGradient id="paint10_linear_54_124" x1="133.384" y1="29.6345" x2="139.388" y2="27.163" gradientUnits="userSpaceOnUse">
<stop stop-color="#12052E"/>
<stop offset="0.00122727" stop-color="#12052E"/>
<stop offset="0.3026" stop-color="#1D404E"/>
<stop offset="0.5829" stop-color="#1F6E6A"/>
<stop offset="0.7839" stop-color="#158E7C"/>
<stop offset="0.8863" stop-color="#099C83"/>
<stop offset="1" stop-color="#099C83"/>
</linearGradient>
<linearGradient id="paint11_linear_54_124" x1="144.211" y1="29.634" x2="150.211" y2="27.1638" gradientUnits="userSpaceOnUse">
<stop stop-color="#12052E"/>
<stop offset="0.00122727" stop-color="#12052E"/>
<stop offset="0.3026" stop-color="#1D404E"/>
<stop offset="0.5829" stop-color="#1F6E6A"/>
<stop offset="0.7839" stop-color="#158E7C"/>
<stop offset="0.8863" stop-color="#099C83"/>
<stop offset="1" stop-color="#099C83"/>
</linearGradient>
<linearGradient id="paint12_linear_54_124" x1="144.212" y1="18.7431" x2="150.212" y2="16.2727" gradientUnits="userSpaceOnUse">
<stop stop-color="#12052E"/>
<stop offset="0.00122727" stop-color="#12052E"/>
<stop offset="0.3026" stop-color="#1D404E"/>
<stop offset="0.5829" stop-color="#1F6E6A"/>
<stop offset="0.7839" stop-color="#158E7C"/>
<stop offset="0.8863" stop-color="#099C83"/>
<stop offset="1" stop-color="#099C83"/>
</linearGradient>
<linearGradient id="paint13_linear_54_124" x1="144.212" y1="7.85326" x2="150.214" y2="5.3825" gradientUnits="userSpaceOnUse">
<stop stop-color="#12052E"/>
<stop offset="0.00122727" stop-color="#12052E"/>
<stop offset="0.3026" stop-color="#1D404E"/>
<stop offset="0.5829" stop-color="#1F6E6A"/>
<stop offset="0.7839" stop-color="#158E7C"/>
<stop offset="0.8863" stop-color="#099C83"/>
<stop offset="1" stop-color="#099C83"/>
</linearGradient>
<linearGradient id="paint14_linear_54_124" x1="159.584" y1="18.7436" x2="165.588" y2="16.2719" gradientUnits="userSpaceOnUse">
<stop stop-color="#12052E"/>
<stop offset="0.00122727" stop-color="#12052E"/>
<stop offset="0.3026" stop-color="#1D404E"/>
<stop offset="0.5829" stop-color="#1F6E6A"/>
<stop offset="0.7839" stop-color="#158E7C"/>
<stop offset="0.8863" stop-color="#099C83"/>
<stop offset="1" stop-color="#099C83"/>
</linearGradient>
<linearGradient id="paint15_linear_54_124" x1="170.411" y1="7.85326" x2="176.413" y2="5.3825" gradientUnits="userSpaceOnUse">
<stop stop-color="#12052E"/>
<stop offset="0.00122727" stop-color="#12052E"/>
<stop offset="0.3026" stop-color="#1D404E"/>
<stop offset="0.5829" stop-color="#1F6E6A"/>
<stop offset="0.7839" stop-color="#158E7C"/>
<stop offset="0.8863" stop-color="#099C83"/>
<stop offset="1" stop-color="#099C83"/>
</linearGradient>
<linearGradient id="paint16_linear_54_124" x1="196.564" y1="7.95486" x2="202.567" y2="5.48333" gradientUnits="userSpaceOnUse">
<stop stop-color="#12052E"/>
<stop offset="0.00122727" stop-color="#12052E"/>
<stop offset="0.3026" stop-color="#1D404E"/>
<stop offset="0.5829" stop-color="#1F6E6A"/>
<stop offset="0.7839" stop-color="#158E7C"/>
<stop offset="0.8863" stop-color="#099C83"/>
<stop offset="1" stop-color="#099C83"/>
</linearGradient>
<linearGradient id="paint17_linear_54_124" x1="196.563" y1="26.4843" x2="202.567" y2="24.0127" gradientUnits="userSpaceOnUse">
<stop stop-color="#12052E"/>
<stop offset="0.00122727" stop-color="#12052E"/>
<stop offset="0.3026" stop-color="#1D404E"/>
<stop offset="0.5829" stop-color="#1F6E6A"/>
<stop offset="0.7839" stop-color="#158E7C"/>
<stop offset="0.8863" stop-color="#099C83"/>
<stop offset="1" stop-color="#099C83"/>
</linearGradient>
<linearGradient id="paint18_linear_54_124" x1="249.009" y1="18.7431" x2="255.01" y2="16.2728" gradientUnits="userSpaceOnUse">
<stop stop-color="#12052E"/>
<stop offset="0.00122727" stop-color="#12052E"/>
<stop offset="0.3026" stop-color="#1D404E"/>
<stop offset="0.5829" stop-color="#1F6E6A"/>
<stop offset="0.7839" stop-color="#158E7C"/>
<stop offset="0.8863" stop-color="#099C83"/>
<stop offset="1" stop-color="#099C83"/>
</linearGradient>
<linearGradient id="paint19_linear_54_124" x1="249.01" y1="7.85326" x2="255.011" y2="5.38251" gradientUnits="userSpaceOnUse">
<stop stop-color="#12052E"/>
<stop offset="0.00122727" stop-color="#12052E"/>
<stop offset="0.3026" stop-color="#1D404E"/>
<stop offset="0.5829" stop-color="#1F6E6A"/>
<stop offset="0.7839" stop-color="#158E7C"/>
<stop offset="0.8863" stop-color="#099C83"/>
<stop offset="1" stop-color="#099C83"/>
</linearGradient>
<linearGradient id="paint20_linear_54_124" x1="264.382" y1="18.7436" x2="270.386" y2="16.2719" gradientUnits="userSpaceOnUse">
<stop stop-color="#12052E"/>
<stop offset="0.00122727" stop-color="#12052E"/>
<stop offset="0.3026" stop-color="#1D404E"/>
<stop offset="0.5829" stop-color="#1F6E6A"/>
<stop offset="0.7839" stop-color="#158E7C"/>
<stop offset="0.8863" stop-color="#099C83"/>
<stop offset="1" stop-color="#099C83"/>
</linearGradient>
<linearGradient id="paint21_linear_54_124" x1="264.382" y1="7.85372" x2="270.387" y2="5.38167" gradientUnits="userSpaceOnUse">
<stop stop-color="#12052E"/>
<stop offset="0.00122727" stop-color="#12052E"/>
<stop offset="0.3026" stop-color="#1D404E"/>
<stop offset="0.5829" stop-color="#1F6E6A"/>
<stop offset="0.7839" stop-color="#158E7C"/>
<stop offset="0.8863" stop-color="#099C83"/>
<stop offset="1" stop-color="#099C83"/>
</linearGradient>
<linearGradient id="paint22_linear_54_124" x1="290.582" y1="18.7436" x2="296.585" y2="16.2719" gradientUnits="userSpaceOnUse">
<stop stop-color="#12052E"/>
<stop offset="0.00122727" stop-color="#12052E"/>
<stop offset="0.3026" stop-color="#1D404E"/>
<stop offset="0.5829" stop-color="#1F6E6A"/>
<stop offset="0.7839" stop-color="#158E7C"/>
<stop offset="0.8863" stop-color="#099C83"/>
<stop offset="1" stop-color="#099C83"/>
</linearGradient>
<linearGradient id="paint23_linear_54_124" x1="301.408" y1="18.7431" x2="307.409" y2="16.2728" gradientUnits="userSpaceOnUse">
<stop stop-color="#12052E"/>
<stop offset="0.00122727" stop-color="#12052E"/>
<stop offset="0.3026" stop-color="#1D404E"/>
<stop offset="0.5829" stop-color="#1F6E6A"/>
<stop offset="0.7839" stop-color="#158E7C"/>
<stop offset="0.8863" stop-color="#099C83"/>
<stop offset="1" stop-color="#099C83"/>
</linearGradient>
<linearGradient id="paint24_linear_54_124" x1="301.409" y1="7.85326" x2="307.41" y2="5.38251" gradientUnits="userSpaceOnUse">
<stop stop-color="#12052E"/>
<stop offset="0.00122727" stop-color="#12052E"/>
<stop offset="0.3026" stop-color="#1D404E"/>
<stop offset="0.5829" stop-color="#1F6E6A"/>
<stop offset="0.7839" stop-color="#158E7C"/>
<stop offset="0.8863" stop-color="#099C83"/>
<stop offset="1" stop-color="#099C83"/>
</linearGradient>
<linearGradient id="paint25_linear_54_124" x1="316.781" y1="18.7436" x2="322.785" y2="16.2719" gradientUnits="userSpaceOnUse">
<stop stop-color="#12052E"/>
<stop offset="0.00122727" stop-color="#12052E"/>
<stop offset="0.3026" stop-color="#1D404E"/>
<stop offset="0.5829" stop-color="#1F6E6A"/>
<stop offset="0.7839" stop-color="#158E7C"/>
<stop offset="0.8863" stop-color="#099C83"/>
<stop offset="1" stop-color="#099C83"/>
</linearGradient>
<linearGradient id="paint26_linear_54_124" x1="316.781" y1="7.85372" x2="322.786" y2="5.38167" gradientUnits="userSpaceOnUse">
<stop stop-color="#12052E"/>
<stop offset="0.00122727" stop-color="#12052E"/>
<stop offset="0.3026" stop-color="#1D404E"/>
<stop offset="0.5829" stop-color="#1F6E6A"/>
<stop offset="0.7839" stop-color="#158E7C"/>
<stop offset="0.8863" stop-color="#099C83"/>
<stop offset="1" stop-color="#099C83"/>
</linearGradient>
<linearGradient id="paint27_linear_54_124" x1="342.98" y1="18.7436" x2="348.984" y2="16.2719" gradientUnits="userSpaceOnUse">
<stop stop-color="#12052E"/>
<stop offset="0.00122727" stop-color="#12052E"/>
<stop offset="0.3026" stop-color="#1D404E"/>
<stop offset="0.5829" stop-color="#1F6E6A"/>
<stop offset="0.7839" stop-color="#158E7C"/>
<stop offset="0.8863" stop-color="#099C83"/>
<stop offset="1" stop-color="#099C83"/>
</linearGradient>
<linearGradient id="paint28_linear_54_124" x1="342.981" y1="7.85372" x2="348.985" y2="5.38165" gradientUnits="userSpaceOnUse">
<stop stop-color="#12052E"/>
<stop offset="0.00122727" stop-color="#12052E"/>
<stop offset="0.3026" stop-color="#1D404E"/>
<stop offset="0.5829" stop-color="#1F6E6A"/>
<stop offset="0.7839" stop-color="#158E7C"/>
<stop offset="0.8863" stop-color="#099C83"/>
<stop offset="1" stop-color="#099C83"/>
</linearGradient>
<linearGradient id="paint29_linear_54_124" x1="358.52" y1="29.634" x2="364.521" y2="27.1638" gradientUnits="userSpaceOnUse">
<stop stop-color="#12052E"/>
<stop offset="0.00122727" stop-color="#12052E"/>
<stop offset="0.3026" stop-color="#1D404E"/>
<stop offset="0.5829" stop-color="#1F6E6A"/>
<stop offset="0.7839" stop-color="#158E7C"/>
<stop offset="0.8863" stop-color="#099C83"/>
<stop offset="1" stop-color="#099C83"/>
</linearGradient>
</defs>
</svg>
