<svg width="50" height="73" viewBox="0 0 50 73" fill="none" xmlns="http://www.w3.org/2000/svg">
<g clip-path="url(#clip0_159_441)">
<path d="M0 0.0164795L11.9557 23.7719H31.4437L19.4881 0.0164795H0Z" fill="#08A1E5"/>
<path d="M1.42139 0.0142822L13.359 23.7297H14.4231L2.48734 0.0142822H1.42139Z" fill="#CCD3E5"/>
<path d="M29.9591 23.7298L18.0233 0.0142822H16.9773L28.9348 23.7715L29.9591 23.7298Z" fill="#CCD3E5"/>
<path d="M30.5102 0.0107422L18.5527 23.7716H38.0408L50.0001 0.0107422H30.5102Z" fill="#08A1E5"/>
<path d="M47.4949 0L35.532 23.7717L36.5562 23.73L48.4992 0H47.4949Z" fill="#CCD3E5"/>
<path d="M31.9606 0L19.9958 23.7717L21.0201 23.73L32.9631 0H31.9606Z" fill="#CCD3E5"/>
<path d="M27.1492 42.1062H22.7929C21.8049 42.1062 21 41.3002 21 40.3107V30.155C21 29.1656 21.8049 28.3595 22.7929 28.3595H27.1492C28.1372 28.3595 28.9421 29.1656 28.9421 30.155V40.3107C28.9421 41.3002 28.1372 42.1062 27.1492 42.1062ZM22.8944 40.2109H27.0476V30.2567H22.8944V40.2109Z" fill="#AAB5CE"/>
<path d="M44.1967 57.7591C46.7029 47.1253 40.1266 36.4703 29.5082 33.9605C18.8898 31.4507 8.25028 38.0365 5.74411 48.6703C3.23795 59.3041 9.8142 69.959 20.4326 72.4688C31.051 74.9786 41.6905 68.3928 44.1967 57.7591Z" fill="#CCD3E5"/>
<path d="M24.9701 69.1947C16.1723 69.1947 9.01343 62.0273 9.01343 53.215C9.01343 44.4027 16.1705 37.2352 24.9701 37.2352C33.7696 37.2352 40.9267 44.4027 40.9267 53.215C40.9267 62.0273 33.7696 69.1947 24.9701 69.1947ZM24.9701 38.2519C16.7307 38.2519 10.0268 44.9655 10.0268 53.2168C10.0268 61.4681 16.7307 68.1817 24.9701 68.1817C33.2094 68.1817 39.9133 61.4681 39.9133 53.2168C39.9133 44.9655 33.2094 38.2519 24.9701 38.2519Z" fill="#95A4C4"/>
<path d="M26.7142 24.1276H23.2317V30.8466H26.7142V24.1276Z" fill="#CCD3E5"/>
<path d="M38.0661 23.6193H11.876V26.3062H38.0661V23.6193Z" fill="#CCD3E5"/>
<path d="M17.5773 45.2561C19.5533 42.9667 22.0931 41.7522 24.9157 41.7522C28.6683 41.7522 31.6323 44.1268 31.6323 47.9411C31.6323 51.1908 30.1077 52.3219 27.1165 54.2717C25.7623 55.1485 23.5325 56.9277 22.8835 58.0587H27.8507V55.7985H32.5913V61.8186H17.3525V57.7211C18.9043 55.1776 19.6675 54.357 21.4731 52.9173C23.4763 51.1364 26.4675 49.949 26.4675 48.1971C26.4675 46.7556 25.3961 46.3308 24.0963 46.3308C22.5717 46.3308 21.4713 47.5744 20.6247 48.4785L17.5773 45.2561Z" fill="#95A4C4"/>
</g>
<defs>
<clipPath id="clip0_159_441">
<rect width="50" height="73" fill="white"/>
</clipPath>
</defs>
</svg>
