<svg width="28" height="267" viewBox="0 0 28 267" fill="none" xmlns="http://www.w3.org/2000/svg">
<path d="M22.0512 34.6706H21.2139V31.3817H22.0512C22.5222 31.3817 22.8711 31.5202 23.1154 31.7971C23.3596 32.0741 23.4817 32.4895 23.4817 33.0261C23.4817 33.5628 23.3596 33.9609 23.1154 34.2552C22.8711 34.5494 22.5222 34.6706 22.0512 34.6706ZM22.1036 30.5508H20.1846V35.4842H22.1036C22.8886 35.4842 23.4817 35.2765 23.9178 34.8437C24.3365 34.411 24.5633 33.8051 24.5633 33.0261C24.5633 32.2472 24.354 31.624 23.9178 31.2086C23.4817 30.7758 22.8886 30.5508 22.1036 30.5508ZM17.027 31.3297C17.2887 31.3297 17.4806 31.399 17.6376 31.5548C17.7946 31.6933 17.8644 31.901 17.8644 32.1433C17.8644 32.3857 17.7946 32.5761 17.6376 32.7146C17.4806 32.853 17.2713 32.9396 17.027 32.9396C16.7479 32.9396 16.5386 32.8704 16.399 32.7319C16.2594 32.5934 16.1722 32.403 16.1722 32.1433C16.1722 31.8837 16.242 31.6933 16.399 31.5548C16.5386 31.399 16.7479 31.3297 17.027 31.3297ZM17.0445 30.4815C16.4688 30.4815 16.0152 30.6373 15.6837 30.9316C15.3523 31.2259 15.1953 31.624 15.1953 32.1433C15.1953 32.4549 15.2651 32.7492 15.4046 32.9742C15.5442 33.2166 15.7361 33.3897 15.9803 33.5281C16.2245 33.6666 16.5037 33.7186 16.8177 33.7186C17.1142 33.7186 17.3934 33.6493 17.6202 33.5281C17.8644 33.407 18.0039 33.2166 18.0737 32.9569H18.1086V33.0608C18.1086 33.5974 18.0214 34.0128 17.8469 34.3071C17.6725 34.6014 17.3934 34.7399 17.027 34.7399C16.7653 34.7399 16.5734 34.6879 16.4513 34.5668C16.3292 34.4629 16.242 34.2898 16.1722 34.0648L15.2127 34.4629C15.3697 34.8264 15.5791 35.1034 15.8756 35.2938C16.1722 35.4669 16.5386 35.5708 17.0096 35.5708C17.655 35.5708 18.161 35.363 18.5099 34.9476C18.8588 34.5321 19.0332 33.8917 19.0332 33.0435C19.0332 32.2299 18.8588 31.6067 18.5099 31.1566C18.1784 30.7066 17.6725 30.4815 17.0445 30.4815Z" fill="#00A887"/>
<path d="M25.4879 4.98352H24.6505V1.69457H25.4879C25.9589 1.69457 26.3078 1.83305 26.552 2.11001C26.7963 2.38698 26.9184 2.80242 26.9184 3.33904C26.9184 3.87566 26.7963 4.2738 26.552 4.56807C26.3078 4.84504 25.9589 4.98352 25.4879 4.98352ZM25.5402 0.863675H23.6213V5.81441H25.5402C26.3253 5.81441 26.9184 5.60669 27.3545 5.17393C27.7732 4.74117 28 4.13531 28 3.35635C28 2.57739 27.7906 1.95422 27.3545 1.53877C26.9184 1.08871 26.3253 0.863675 25.5402 0.863675ZM20.4986 5.05276C20.1846 5.05276 19.9403 4.91428 19.7833 4.63731C19.6263 4.36035 19.5565 3.92759 19.5565 3.33904C19.5565 2.75049 19.6263 2.31774 19.7833 2.04077C19.9403 1.76381 20.1846 1.62533 20.4986 1.62533C20.8126 1.62533 21.0568 1.76381 21.2138 2.04077C21.3708 2.31774 21.4406 2.75049 21.4406 3.33904C21.4406 3.92759 21.3708 4.36035 21.2138 4.63731C21.0568 4.91428 20.8126 5.05276 20.4986 5.05276ZM20.4986 5.88365C21.1615 5.88365 21.65 5.67593 21.9814 5.24317C22.3129 4.81041 22.4873 4.18725 22.4873 3.33904C22.4873 2.50815 22.3129 1.86767 21.9814 1.43491C21.65 1.00216 21.1441 0.794434 20.4986 0.794434C19.8357 0.794434 19.3472 1.00216 19.0157 1.43491C18.6843 1.86767 18.5098 2.49084 18.5098 3.33904C18.5098 4.16993 18.6843 4.81041 19.0157 5.24317C19.3472 5.65862 19.8357 5.88365 20.4986 5.88365ZM16.5385 0.863675C16.4164 1.03678 16.1896 1.22719 15.8582 1.40029C15.5267 1.59071 15.265 1.67726 15.0208 1.71188L15.1604 2.57739C15.3697 2.54277 15.5791 2.45622 15.7884 2.35236C15.9977 2.23119 16.1896 2.0927 16.3641 1.93691C16.3641 1.98884 16.3641 2.04077 16.3641 2.12732V5.81441H17.3759V0.863675H16.5385Z" fill="#00A887"/>
<path d="M8.54868 270.956H-3M8.54868 152.225H-3H8.54868ZM8.54868 122.538H-3H8.54868ZM8.54868 92.8504H-3H8.54868ZM8.54868 63.1633H-3H8.54868ZM8.54868 33.4762H-3H8.54868ZM8.54868 3.78912H-3H8.54868ZM8.54868 181.894H-3H8.54868ZM8.54868 211.581H-3H8.54868ZM8.54868 241.269H-3H8.54868Z" stroke="#00A887" stroke-width="1.2" stroke-miterlimit="10"/>
<path d="M21.7721 153.419H20.9347V150.13H21.7721C22.2431 150.13 22.592 150.269 22.8362 150.546C23.0805 150.822 23.2026 151.238 23.2026 151.775C23.2026 152.311 23.0805 152.709 22.8362 153.004C22.6095 153.281 22.2431 153.419 21.7721 153.419ZM21.8244 149.316H19.9055V154.25H21.8244C22.6095 154.25 23.2026 154.042 23.6387 153.609C24.0574 153.177 24.2842 152.571 24.2842 151.792C24.2842 150.996 24.0749 150.39 23.6387 149.974C23.22 149.524 22.6095 149.316 21.8244 149.316ZM17.2712 151.065C17.0445 151.065 16.8351 151.099 16.6432 151.169C16.4513 151.238 16.3118 151.324 16.2071 151.446L16.2245 151.307L16.3641 150.147H18.5796V149.316H15.5791L15.2651 152.121L16.085 152.207C16.2769 151.965 16.5734 151.844 16.9921 151.844C17.2712 151.844 17.4806 151.913 17.6376 152.052C17.7772 152.19 17.8644 152.398 17.8644 152.675C17.8644 152.934 17.7772 153.142 17.6202 153.281C17.4631 153.419 17.2364 153.506 16.9747 153.506C16.6956 153.506 16.4862 153.436 16.3467 153.315C16.2071 153.194 16.1024 153.004 16.0326 152.761L15.0906 153.281C15.2825 153.644 15.5267 153.904 15.8407 154.077C16.1373 154.25 16.5211 154.319 16.9747 154.319C17.5329 154.319 17.9691 154.163 18.318 153.869C18.6494 153.575 18.8239 153.142 18.8239 152.588C18.8239 152.121 18.6843 151.757 18.4052 151.48C18.1261 151.203 17.7597 151.065 17.2712 151.065Z" fill="#00A887"/>
<path d="M21.8244 212.793H20.9871V209.504H21.8244C22.2955 209.504 22.6444 209.643 22.8886 209.92C23.1328 210.197 23.2549 210.612 23.2549 211.149C23.2549 211.685 23.1328 212.084 22.8886 212.378C22.6618 212.655 22.2955 212.793 21.8244 212.793ZM21.8768 208.691H19.9578V213.624H21.8768C22.6618 213.624 23.2549 213.416 23.6911 212.984C24.1098 212.551 24.3365 211.945 24.3365 211.166C24.3365 210.387 24.1272 209.764 23.6911 209.348C23.2724 208.898 22.6618 208.691 21.8768 208.691ZM17.027 208.604C16.556 208.604 16.1722 208.708 15.8582 208.916C15.5442 209.123 15.3349 209.418 15.2302 209.816L16.1548 210.145C16.1897 209.92 16.2769 209.747 16.4165 209.625C16.556 209.504 16.7479 209.452 16.9747 209.452C17.2015 209.452 17.3759 209.504 17.4981 209.625C17.6202 209.747 17.69 209.902 17.69 210.127C17.69 210.578 17.4108 210.803 16.87 210.803H16.6607V211.512H16.9049C17.2189 211.512 17.4283 211.564 17.5853 211.668C17.7423 211.772 17.7946 211.928 17.7946 212.17C17.7946 212.378 17.7248 212.551 17.5678 212.689C17.4108 212.811 17.2189 212.88 16.9573 212.88C16.6781 212.88 16.4688 212.811 16.3292 212.689C16.1897 212.568 16.085 212.36 16.0152 212.084L15.0732 212.499C15.2127 212.914 15.4395 213.226 15.7535 213.416C16.0676 213.607 16.4688 213.711 16.9398 213.711C17.3062 213.711 17.6202 213.659 17.8993 213.538C18.1784 213.416 18.4052 213.243 18.5622 213.036C18.7192 212.828 18.8064 212.568 18.8064 212.309C18.8064 212.066 18.7541 211.858 18.6494 211.685C18.5448 211.512 18.4226 211.391 18.2656 211.305C18.1086 211.218 17.9516 211.183 17.7772 211.183V211.166C17.8993 211.166 18.0389 211.114 18.1959 211.028C18.3354 210.941 18.4575 210.803 18.5622 210.629C18.6669 210.456 18.7192 210.249 18.7192 209.989C18.7192 209.591 18.5622 209.262 18.2656 209.02C17.9691 208.725 17.5678 208.604 17.027 208.604Z" fill="#00A887"/>
<path d="M21.8768 94.0448H21.0394V90.7559H21.8768C22.3478 90.7559 22.6967 90.8944 22.9409 91.1713C23.1852 91.4483 23.3073 91.8637 23.3073 92.4004C23.3073 92.937 23.1852 93.3351 22.9409 93.6294C22.6967 93.9063 22.3478 94.0448 21.8768 94.0448ZM21.9291 89.925H20.0101V94.8584H21.9291C22.7141 94.8584 23.3073 94.6507 23.7434 94.2179C24.1621 93.7852 24.3889 93.1793 24.3889 92.4004C24.3889 91.6214 24.1795 90.9982 23.7434 90.5828C23.3073 90.15 22.7141 89.925 21.9291 89.925ZM15.1081 89.925V90.7732H18.004C16.87 91.933 16.3118 93.3005 16.3118 94.8584H17.3585C17.3585 94.0275 17.4806 93.2832 17.7423 92.6081C18.004 91.933 18.4401 91.2925 19.0332 90.7039V89.925H15.1081Z" fill="#00A887"/>
<path d="M21.8419 242.48H21.0045V239.191H21.8419C22.3129 239.191 22.6618 239.33 22.906 239.607C23.1503 239.884 23.2724 240.299 23.2724 240.836C23.2724 241.372 23.1503 241.771 22.906 242.065C22.6792 242.342 22.3129 242.48 21.8419 242.48ZM21.8942 238.378H19.9753V243.311H21.8942C22.6792 243.311 23.2724 243.104 23.7085 242.671C24.1272 242.238 24.354 241.632 24.354 240.853C24.354 240.057 24.1446 239.451 23.7085 239.036C23.2724 238.586 22.6792 238.378 21.8942 238.378ZM15.2825 243.311H18.8762V242.48H17.498C17.184 242.48 16.87 242.498 16.5909 242.515C17.3585 242.048 17.9167 241.615 18.2656 241.199C18.6145 240.784 18.789 240.351 18.789 239.884C18.789 239.607 18.7192 239.347 18.5796 239.105C18.4401 238.862 18.2482 238.672 17.9691 238.534C17.7074 238.395 17.3759 238.309 16.9921 238.309C16.4513 238.309 16.0152 238.447 15.6663 238.741C15.3348 239.018 15.143 239.416 15.1081 239.918L15.9978 240.247C16.0152 239.901 16.1024 239.624 16.2594 239.434C16.4164 239.243 16.6432 239.157 16.9224 239.157C17.1666 239.157 17.3759 239.226 17.5155 239.382C17.6551 239.52 17.7248 239.711 17.7248 239.953C17.7248 240.213 17.6376 240.472 17.4806 240.715C17.3236 240.974 17.0619 241.251 16.6956 241.563C16.3467 241.874 15.8582 242.221 15.2476 242.619V243.311H15.2825Z" fill="#00A887"/>
<path d="M22.0338 123.732H21.1964V120.443H22.0338C22.5048 120.443 22.8537 120.581 23.0979 120.858C23.3422 121.135 23.4643 121.551 23.4643 122.087C23.4643 122.624 23.3422 123.022 23.0979 123.316C22.8537 123.611 22.5222 123.732 22.0338 123.732ZM22.0861 119.612H20.1672V124.563H22.0861C22.8712 124.563 23.4643 124.355 23.9004 123.922C24.3191 123.49 24.5459 122.884 24.5459 122.105C24.5459 121.326 24.3365 120.703 23.9004 120.287C23.4817 119.837 22.8712 119.612 22.0861 119.612ZM17.2538 122.226C17.5155 122.226 17.7248 122.295 17.8818 122.434C18.0214 122.572 18.1086 122.763 18.1086 123.005C18.1086 123.265 18.0388 123.455 17.8818 123.593C17.7423 123.732 17.5329 123.801 17.2538 123.801C16.9921 123.801 16.7828 123.732 16.6432 123.576C16.4862 123.438 16.4165 123.23 16.4165 122.988C16.4165 122.745 16.4862 122.572 16.6432 122.416C16.8002 122.295 17.0096 122.226 17.2538 122.226ZM17.3236 119.543C16.9224 119.543 16.556 119.629 16.242 119.82C15.928 120.01 15.6838 120.287 15.4919 120.668C15.3174 121.049 15.2127 121.516 15.2127 122.07C15.2127 122.866 15.3872 123.49 15.7361 123.94C16.085 124.39 16.5735 124.615 17.2189 124.615C17.7946 124.615 18.2482 124.476 18.5622 124.182C18.8937 123.888 19.0507 123.507 19.0507 123.005C19.0507 122.693 18.9809 122.416 18.8413 122.174C18.7018 121.932 18.5099 121.759 18.2656 121.637C18.0214 121.516 17.7423 121.447 17.4283 121.447C17.1317 121.447 16.8526 121.516 16.6258 121.637C16.399 121.759 16.242 121.949 16.1548 122.191H16.1373V122.07C16.1373 121.741 16.1897 121.447 16.2769 121.187C16.3641 120.928 16.5037 120.737 16.6607 120.599C16.8351 120.46 17.0096 120.391 17.2189 120.391C17.6725 120.391 17.9516 120.599 18.0912 121.014L18.9634 120.616C18.8239 120.235 18.6145 119.976 18.3354 119.803C18.0912 119.629 17.7423 119.543 17.3236 119.543Z" fill="#00A887"/>
<path d="M22.1559 183.106H21.3185V179.817H22.1559C22.6269 179.817 22.9758 179.956 23.22 180.233C23.4643 180.51 23.5864 180.925 23.5864 181.462C23.5864 181.998 23.4643 182.396 23.22 182.691C22.9933 182.968 22.6269 183.106 22.1559 183.106ZM22.2082 179.004H20.2893V183.937H22.2082C22.9933 183.937 23.5864 183.729 24.0225 183.297C24.4412 182.864 24.668 182.258 24.668 181.479C24.668 180.683 24.4586 180.077 24.0225 179.661C23.6038 179.211 22.9933 179.004 22.2082 179.004ZM17.1142 180.527C17.3061 180.233 17.4631 179.973 17.5678 179.713H17.5853L17.5678 180.527V182.033H16.085L17.1142 180.527ZM19.3123 182.033H18.5099V179.004H17.2712L15.0906 182.241V182.795H17.5678V183.954H18.5099V182.795H19.3123V182.033Z" fill="#00A887"/>
<path d="M22.0861 64.3577H21.2487V61.0688H22.0861C22.5571 61.0688 22.906 61.2073 23.1503 61.4842C23.3945 61.7612 23.5166 62.1767 23.5166 62.7133C23.5166 63.2499 23.3945 63.648 23.1503 63.9423C22.906 64.2193 22.5571 64.3577 22.0861 64.3577ZM22.1384 60.2379H20.2195V65.1886H22.1384C22.9235 65.1886 23.5166 64.9809 23.9527 64.5482C24.3714 64.1154 24.5982 63.5095 24.5982 62.7306C24.5982 61.9343 24.3889 61.3284 23.9527 60.913C23.5166 60.4629 22.9235 60.2379 22.1384 60.2379ZM17.1491 64.4616C16.87 64.4616 16.6432 64.3924 16.4862 64.2712C16.3118 64.15 16.242 63.9596 16.242 63.7519C16.242 63.5269 16.3292 63.3538 16.4862 63.2153C16.6607 63.0941 16.87 63.0249 17.1491 63.0249C17.4283 63.0249 17.655 63.0941 17.8295 63.2153C17.9865 63.3364 18.0737 63.5269 18.0737 63.7519C18.0737 63.9769 17.9865 64.15 17.8295 64.2712C17.655 64.3924 17.4283 64.4616 17.1491 64.4616ZM17.1491 60.9822C17.3934 60.9822 17.5853 61.0342 17.7074 61.1553C17.8469 61.2765 17.9167 61.4323 17.9167 61.64C17.9167 61.8478 17.8469 62.0036 17.7074 62.1074C17.5678 62.2286 17.3759 62.2805 17.1491 62.2805C16.9223 62.2805 16.7305 62.2286 16.5909 62.1074C16.4513 61.9862 16.3816 61.8304 16.3816 61.64C16.3816 61.4323 16.4513 61.2765 16.5909 61.1553C16.713 61.0342 16.9049 60.9822 17.1491 60.9822ZM17.1491 60.186C16.6083 60.186 16.1722 60.3071 15.8582 60.5495C15.5442 60.7918 15.3872 61.1207 15.3872 61.5362C15.3872 61.7958 15.457 62.0209 15.5791 62.194C15.7186 62.3844 15.8931 62.5229 16.1373 62.6267C15.8408 62.7306 15.5965 62.8864 15.4395 63.0941C15.2825 63.3018 15.1953 63.5615 15.1953 63.8557C15.1953 64.2885 15.3697 64.6174 15.7186 64.8771C16.0675 65.1194 16.5386 65.2579 17.1317 65.2579C17.7248 65.2579 18.1958 65.1367 18.5447 64.8771C18.8936 64.6347 19.0681 64.2885 19.0681 63.8557C19.0681 63.5615 18.9809 63.3018 18.8239 63.0941C18.6669 62.8864 18.4226 62.7306 18.1261 62.6267C18.3703 62.5402 18.5447 62.3844 18.6843 62.194C18.8239 62.0036 18.8762 61.7785 18.8762 61.5362C18.8762 61.1207 18.7192 60.7918 18.4052 60.5495C18.1086 60.3071 17.6899 60.186 17.1491 60.186Z" fill="#00A887"/>
</svg>
