<svg width="100" height="115" viewBox="0 0 100 115" fill="none" xmlns="http://www.w3.org/2000/svg">
<g filter="url(#filter0_d_46_304)">
<circle cx="42.5" cy="76.5" r="30.5" fill="white"/>
<path d="M29.0066 79.39V85H27.3831L25.6406 81.9655L25.2156 81.1325H25.2071L25.2411 82.1695V85H23.9491V79.39H25.5726L27.3151 82.4245L27.7401 83.2575H27.7486L27.7146 82.2205V79.39H29.0066ZM32.5447 82.3055C32.5447 82.1072 32.4881 81.9513 32.3747 81.838C32.2671 81.719 32.1197 81.6595 31.9327 81.6595C31.7457 81.6595 31.5842 81.7077 31.4482 81.804C31.3179 81.8947 31.2272 82.059 31.1762 82.297L29.9522 82.008C30.0316 81.6 30.2412 81.2742 30.5812 81.0305C30.9212 80.7868 31.4001 80.665 32.0177 80.665C32.4314 80.665 32.7827 80.7273 33.0717 80.852C33.3664 80.971 33.5902 81.1523 33.7432 81.396C33.9019 81.634 33.9812 81.9287 33.9812 82.28V83.8355C33.9812 84.0565 34.0804 84.167 34.2787 84.167C34.3807 84.167 34.4629 84.1557 34.5252 84.133L34.4402 84.9575C34.2702 85.0368 34.0634 85.0765 33.8197 85.0765C33.5987 85.0765 33.4032 85.0425 33.2332 84.9745C33.0632 84.9008 32.9301 84.7932 32.8337 84.6515C32.7374 84.5042 32.6892 84.32 32.6892 84.099V84.048L32.8507 83.9885C32.8507 84.2322 32.7771 84.4362 32.6297 84.6005C32.4881 84.7648 32.3011 84.8867 32.0687 84.966C31.8421 85.0453 31.6041 85.085 31.3547 85.085C31.0657 85.085 30.8136 85.0397 30.5982 84.949C30.3829 84.8583 30.2157 84.728 30.0967 84.558C29.9834 84.3823 29.9267 84.167 29.9267 83.912C29.9267 83.606 30.0174 83.3538 30.1987 83.1555C30.3857 82.9515 30.6776 82.8098 31.0742 82.7305L32.6807 82.399L32.6722 83.164L31.8562 83.334C31.6862 83.368 31.5587 83.419 31.4737 83.487C31.3944 83.5493 31.3547 83.6457 31.3547 83.776C31.3547 83.9007 31.4001 83.9942 31.4907 84.0565C31.5814 84.1188 31.6891 84.15 31.8137 84.15C31.9101 84.15 32.0007 84.1358 32.0857 84.1075C32.1764 84.0792 32.2557 84.0367 32.3237 83.98C32.3917 83.9177 32.4456 83.8412 32.4852 83.7505C32.5249 83.6598 32.5447 83.5522 32.5447 83.4275V82.3055ZM31.9242 78.727H33.2672L32.4087 80.1975H31.3547L31.9242 78.727ZM35.1381 85V78.948H36.5831V81.5235C36.7078 81.2402 36.8863 81.0277 37.1186 80.886C37.3509 80.7387 37.6201 80.665 37.9261 80.665C38.2208 80.665 38.4758 80.7217 38.6911 80.835C38.9121 80.9483 39.0849 81.1155 39.2096 81.3365C39.3343 81.5575 39.3966 81.8352 39.3966 82.1695V85H37.9516V82.569C37.9516 82.263 37.8949 82.0533 37.7816 81.94C37.6739 81.821 37.5294 81.7615 37.3481 81.7615C37.2121 81.7615 37.0846 81.7955 36.9656 81.8635C36.8466 81.9315 36.7531 82.0392 36.6851 82.1865C36.6171 82.3338 36.5831 82.5265 36.5831 82.7645V85H35.1381ZM42.4746 80.665C42.9223 80.665 43.3133 80.7528 43.6476 80.9285C43.9876 81.0985 44.2511 81.3507 44.4381 81.685C44.6308 82.0137 44.7271 82.4103 44.7271 82.875C44.7271 83.3397 44.6308 83.7392 44.4381 84.0735C44.2511 84.4022 43.9876 84.6543 43.6476 84.83C43.3133 85 42.9223 85.085 42.4746 85.085C42.0383 85.085 41.6501 85 41.3101 84.83C40.9701 84.6543 40.7038 84.4022 40.5111 84.0735C40.3241 83.7392 40.2306 83.3397 40.2306 82.875C40.2306 82.4103 40.3241 82.0137 40.5111 81.685C40.7038 81.3507 40.9701 81.0985 41.3101 80.9285C41.6501 80.7528 42.0383 80.665 42.4746 80.665ZM42.4746 81.6935C42.3103 81.6935 42.1686 81.7332 42.0496 81.8125C41.9306 81.8918 41.8399 82.0193 41.7776 82.195C41.7153 82.3707 41.6841 82.5973 41.6841 82.875C41.6841 83.1527 41.7153 83.3793 41.7776 83.555C41.8399 83.725 41.9306 83.8525 42.0496 83.9375C42.1686 84.0168 42.3103 84.0565 42.4746 84.0565C42.6446 84.0565 42.7891 84.0168 42.9081 83.9375C43.0271 83.8525 43.1178 83.725 43.1801 83.555C43.2424 83.3793 43.2736 83.1527 43.2736 82.875C43.2736 82.5973 43.2424 82.3707 43.1801 82.195C43.1178 82.0193 43.0271 81.8918 42.9081 81.8125C42.7891 81.7332 42.6446 81.6935 42.4746 81.6935ZM47.1465 85.085C46.7952 85.085 46.4863 85 46.22 84.83C45.9593 84.6543 45.7553 84.4022 45.608 84.0735C45.4663 83.7448 45.3955 83.351 45.3955 82.892C45.3955 82.416 45.4692 82.0137 45.6165 81.685C45.7695 81.3563 45.9792 81.1042 46.2455 80.9285C46.5175 80.7528 46.8292 80.665 47.1805 80.665C47.5658 80.665 47.8747 80.784 48.107 81.022C48.345 81.2543 48.498 81.5518 48.566 81.9145L48.43 82.093V78.948H49.875V85H48.583L48.4895 83.555L48.6595 83.6825C48.6255 83.9658 48.5377 84.2123 48.396 84.422C48.26 84.6317 48.0843 84.796 47.869 84.915C47.6593 85.0283 47.4185 85.085 47.1465 85.085ZM47.648 84.0225C47.8123 84.0225 47.9512 83.98 48.0645 83.895C48.1835 83.8043 48.2742 83.6712 48.3365 83.4955C48.3988 83.3198 48.43 83.1045 48.43 82.8495C48.43 82.6115 48.3988 82.4103 48.3365 82.246C48.2798 82.076 48.192 81.9485 48.073 81.8635C47.9597 81.7728 47.8208 81.7275 47.6565 81.7275C47.4072 81.7275 47.2088 81.821 47.0615 82.008C46.9198 82.1893 46.849 82.4783 46.849 82.875C46.849 83.2717 46.9198 83.5635 47.0615 83.7505C47.2032 83.9318 47.3987 84.0225 47.648 84.0225ZM50.9541 85V80.75H52.2461L52.3226 82.212L52.1611 82.0505C52.2178 81.7445 52.3169 81.4895 52.4586 81.2855C52.6059 81.0815 52.7873 80.9285 53.0026 80.8265C53.2236 80.7188 53.4701 80.665 53.7421 80.665C54.0368 80.665 54.2918 80.7217 54.5071 80.835C54.7281 80.9483 54.9009 81.1155 55.0256 81.3365C55.1503 81.5575 55.2126 81.8352 55.2126 82.1695V85H53.7676V82.552C53.7676 82.2573 53.7109 82.0533 53.5976 81.94C53.4843 81.8267 53.3398 81.77 53.1641 81.77C53.0281 81.77 52.9006 81.804 52.7816 81.872C52.6626 81.9343 52.5691 82.0363 52.5011 82.178C52.4331 82.3197 52.3991 82.5095 52.3991 82.7475V85H50.9541ZM58.6391 82.3055C58.6391 82.1072 58.5824 81.9513 58.4691 81.838C58.3614 81.719 58.2141 81.6595 58.0271 81.6595C57.8401 81.6595 57.6786 81.7077 57.5426 81.804C57.4123 81.8947 57.3216 82.059 57.2706 82.297L56.0466 82.008C56.1259 81.6 56.3356 81.2742 56.6756 81.0305C57.0156 80.7868 57.4944 80.665 58.1121 80.665C58.5258 80.665 58.8771 80.7273 59.1661 80.852C59.4608 80.971 59.6846 81.1523 59.8376 81.396C59.9963 81.634 60.0756 81.9287 60.0756 82.28V83.8355C60.0756 84.0565 60.1748 84.167 60.3731 84.167C60.4751 84.167 60.5573 84.1557 60.6196 84.133L60.5346 84.9575C60.3646 85.0368 60.1578 85.0765 59.9141 85.0765C59.6931 85.0765 59.4976 85.0425 59.3276 84.9745C59.1576 84.9008 59.0244 84.7932 58.9281 84.6515C58.8318 84.5042 58.7836 84.32 58.7836 84.099V84.048L58.9451 83.9885C58.9451 84.2322 58.8714 84.4362 58.7241 84.6005C58.5824 84.7648 58.3954 84.8867 58.1631 84.966C57.9364 85.0453 57.6984 85.085 57.4491 85.085C57.1601 85.085 56.9079 85.0397 56.6926 84.949C56.4773 84.8583 56.3101 84.728 56.1911 84.558C56.0778 84.3823 56.0211 84.167 56.0211 83.912C56.0211 83.606 56.1118 83.3538 56.2931 83.1555C56.4801 82.9515 56.7719 82.8098 57.1686 82.7305L58.7751 82.399L58.7666 83.164L57.9506 83.334C57.7806 83.368 57.6531 83.419 57.5681 83.487C57.4888 83.5493 57.4491 83.6457 57.4491 83.776C57.4491 83.9007 57.4944 83.9942 57.5851 84.0565C57.6758 84.1188 57.7834 84.15 57.9081 84.15C58.0044 84.15 58.0951 84.1358 58.1801 84.1075C58.2708 84.0792 58.3501 84.0367 58.4181 83.98C58.4861 83.9177 58.5399 83.8412 58.5796 83.7505C58.6193 83.6598 58.6391 83.5522 58.6391 83.4275V82.3055ZM58.0186 78.727H59.3616L58.5031 80.1975H57.4491L58.0186 78.727ZM28.0145 95.085C27.7255 95.085 27.4705 95.0368 27.2495 94.9405C27.0342 94.8385 26.8642 94.677 26.7395 94.456C26.6148 94.235 26.5525 93.946 26.5525 93.589V90.75H27.9975V93.249C27.9975 93.521 28.0513 93.7108 28.159 93.8185C28.2667 93.9262 28.4197 93.98 28.618 93.98C28.72 93.98 28.8163 93.963 28.907 93.929C28.9977 93.8893 29.077 93.8327 29.145 93.759C29.213 93.6797 29.264 93.5805 29.298 93.4615C29.3377 93.3368 29.3575 93.1923 29.3575 93.028V90.75H30.8025V95H29.5105L29.468 94.201C29.332 94.5013 29.1422 94.7252 28.8985 94.8725C28.6548 95.0142 28.3602 95.085 28.0145 95.085ZM33.4472 95.085C33.0959 95.085 32.787 95 32.5207 94.83C32.26 94.6543 32.056 94.4022 31.9087 94.0735C31.767 93.7448 31.6962 93.351 31.6962 92.892C31.6962 92.416 31.7699 92.0137 31.9172 91.685C32.0702 91.3563 32.2799 91.1042 32.5462 90.9285C32.8182 90.7528 33.1299 90.665 33.4812 90.665C33.8665 90.665 34.1754 90.784 34.4077 91.022C34.6457 91.2543 34.7987 91.5518 34.8667 91.9145L34.7307 92.093V88.948H36.1757V95H34.8837L34.7902 93.555L34.9602 93.6825C34.9262 93.9658 34.8384 94.2123 34.6967 94.422C34.5607 94.6317 34.385 94.796 34.1697 94.915C33.96 95.0283 33.7192 95.085 33.4472 95.085ZM33.9487 94.0225C34.113 94.0225 34.2519 93.98 34.3652 93.895C34.4842 93.8043 34.5749 93.6712 34.6372 93.4955C34.6995 93.3198 34.7307 93.1045 34.7307 92.8495C34.7307 92.6115 34.6995 92.4103 34.6372 92.246C34.5805 92.076 34.4927 91.9485 34.3737 91.8635C34.2604 91.7728 34.1215 91.7275 33.9572 91.7275C33.7079 91.7275 33.5095 91.821 33.3622 92.008C33.2205 92.1893 33.1497 92.4783 33.1497 92.875C33.1497 93.2717 33.2205 93.5635 33.3622 93.7505C33.5039 93.9318 33.6994 94.0225 33.9487 94.0225ZM39.6263 92.3055C39.6263 92.1072 39.5696 91.9513 39.4563 91.838C39.3486 91.719 39.2013 91.6595 39.0143 91.6595C38.8273 91.6595 38.6658 91.7077 38.5298 91.804C38.3995 91.8947 38.3088 92.059 38.2578 92.297L37.0338 92.008C37.1131 91.6 37.3228 91.2742 37.6628 91.0305C38.0028 90.7868 38.4816 90.665 39.0993 90.665C39.513 90.665 39.8643 90.7273 40.1533 90.852C40.448 90.971 40.6718 91.1523 40.8248 91.396C40.9835 91.634 41.0628 91.9287 41.0628 92.28V93.8355C41.0628 94.0565 41.162 94.167 41.3603 94.167C41.4623 94.167 41.5445 94.1557 41.6068 94.133L41.5218 94.9575C41.3518 95.0368 41.145 95.0765 40.9013 95.0765C40.6803 95.0765 40.4848 95.0425 40.3148 94.9745C40.1448 94.9008 40.0116 94.7932 39.9153 94.6515C39.819 94.5042 39.7708 94.32 39.7708 94.099V94.048L39.9323 93.9885C39.9323 94.2322 39.8586 94.4362 39.7113 94.6005C39.5696 94.7648 39.3826 94.8867 39.1503 94.966C38.9236 95.0453 38.6856 95.085 38.4363 95.085C38.1473 95.085 37.8951 95.0397 37.6798 94.949C37.4645 94.8583 37.2973 94.728 37.1783 94.558C37.065 94.3823 37.0083 94.167 37.0083 93.912C37.0083 93.606 37.099 93.3538 37.2803 93.1555C37.4673 92.9515 37.7591 92.8098 38.1558 92.7305L39.7623 92.399L39.7538 93.164L38.9378 93.334C38.7678 93.368 38.6403 93.419 38.5553 93.487C38.476 93.5493 38.4363 93.6457 38.4363 93.776C38.4363 93.9007 38.4816 93.9942 38.5723 94.0565C38.663 94.1188 38.7706 94.15 38.8953 94.15C38.9916 94.15 39.0823 94.1358 39.1673 94.1075C39.258 94.0792 39.3373 94.0367 39.4053 93.98C39.4733 93.9177 39.5271 93.8412 39.5668 93.7505C39.6065 93.6598 39.6263 93.5522 39.6263 93.4275V92.3055ZM39.0058 88.727H40.3488L39.4903 90.1975H38.4363L39.0058 88.727ZM43.6477 88.948V93.555C43.6477 93.742 43.6788 93.8752 43.7412 93.9545C43.8035 94.0338 43.9083 94.0735 44.0557 94.0735C44.1407 94.0735 44.2115 94.0678 44.2682 94.0565C44.3248 94.0452 44.3928 94.0282 44.4722 94.0055L44.3787 94.8725C44.2767 94.9348 44.1435 94.9858 43.9792 95.0255C43.8148 95.0652 43.6533 95.085 43.4947 95.085C43.0413 95.085 42.7127 94.9802 42.5087 94.7705C42.3047 94.5608 42.2027 94.218 42.2027 93.742V88.948H43.6477ZM47.0659 90.665C47.5136 90.665 47.9046 90.7528 48.2389 90.9285C48.5789 91.0985 48.8424 91.3507 49.0294 91.685C49.2221 92.0137 49.3184 92.4103 49.3184 92.875C49.3184 93.3397 49.2221 93.7392 49.0294 94.0735C48.8424 94.4022 48.5789 94.6543 48.2389 94.83C47.9046 95 47.5136 95.085 47.0659 95.085C46.6296 95.085 46.2414 95 45.9014 94.83C45.5614 94.6543 45.2951 94.4022 45.1024 94.0735C44.9154 93.7392 44.8219 93.3397 44.8219 92.875C44.8219 92.4103 44.9154 92.0137 45.1024 91.685C45.2951 91.3507 45.5614 91.0985 45.9014 90.9285C46.2414 90.7528 46.6296 90.665 47.0659 90.665ZM47.0659 91.6935C46.9016 91.6935 46.7599 91.7332 46.6409 91.8125C46.5219 91.8918 46.4313 92.0193 46.3689 92.195C46.3066 92.3707 46.2754 92.5973 46.2754 92.875C46.2754 93.1527 46.3066 93.3793 46.3689 93.555C46.4313 93.725 46.5219 93.8525 46.6409 93.9375C46.7599 94.0168 46.9016 94.0565 47.0659 94.0565C47.2359 94.0565 47.3804 94.0168 47.4994 93.9375C47.6184 93.8525 47.7091 93.725 47.7714 93.555C47.8338 93.3793 47.8649 93.1527 47.8649 92.875C47.8649 92.5973 47.8338 92.3707 47.7714 92.195C47.7091 92.0193 47.6184 91.8918 47.4994 91.8125C47.3804 91.7332 47.2359 91.6935 47.0659 91.6935ZM51.9588 95.085C51.5338 95.085 51.1371 95.017 50.7688 94.881C50.4061 94.7393 50.1058 94.5382 49.8678 94.2775L50.5478 93.4785C50.6895 93.6598 50.8765 93.8128 51.1088 93.9375C51.3468 94.0565 51.6103 94.116 51.8993 94.116C52.075 94.116 52.2195 94.0905 52.3328 94.0395C52.4461 93.9885 52.5028 93.9092 52.5028 93.8015C52.5028 93.7222 52.4745 93.6598 52.4178 93.6145C52.3611 93.5635 52.2478 93.521 52.0778 93.487L51.4828 93.368C50.9501 93.2603 50.5705 93.1017 50.3438 92.892C50.1228 92.6767 50.0123 92.3962 50.0123 92.0505C50.0123 91.8182 50.0831 91.5972 50.2248 91.3875C50.3665 91.1722 50.5846 90.9993 50.8793 90.869C51.174 90.733 51.5508 90.665 52.0098 90.665C52.4405 90.665 52.8201 90.7273 53.1488 90.852C53.4775 90.9767 53.7381 91.158 53.9308 91.396L53.2423 92.178C53.1063 92.008 52.9306 91.8748 52.7153 91.7785C52.5 91.6822 52.2846 91.634 52.0693 91.634C51.9333 91.634 51.8171 91.6482 51.7208 91.6765C51.6301 91.6992 51.5621 91.7332 51.5168 91.7785C51.4715 91.8238 51.4488 91.8805 51.4488 91.9485C51.4488 92.0222 51.4828 92.0873 51.5508 92.144C51.6245 92.195 51.7576 92.2403 51.9503 92.28L52.7238 92.433C53.1601 92.5123 53.4746 92.6568 53.6673 92.8665C53.86 93.0762 53.9563 93.3283 53.9563 93.623C53.9563 93.9007 53.8826 94.15 53.7353 94.371C53.588 94.592 53.367 94.7677 53.0723 94.898C52.7776 95.0227 52.4065 95.085 51.9588 95.085ZM56.525 89.3985V93.487C56.525 93.691 56.5732 93.8383 56.6695 93.929C56.7715 94.014 56.9104 94.0565 57.086 94.0565C57.222 94.0565 57.3382 94.0423 57.4345 94.014C57.5365 93.98 57.6272 93.9318 57.7065 93.8695L57.8595 94.762C57.7179 94.864 57.5394 94.9433 57.324 95C57.1087 95.0567 56.8877 95.085 56.661 95.085C56.338 95.085 56.0575 95.0397 55.8195 94.949C55.5872 94.8583 55.4059 94.7138 55.2755 94.5155C55.1509 94.3172 55.0857 94.0537 55.08 93.725V89.798L56.525 89.3985ZM57.7915 90.75V91.7785H54.349V90.75H57.7915Z" fill="#1C1E3B"/>
</g>
<path d="M42.1305 29.0014C35.7501 29.0014 32.9058 31.3092 30.705 33.2743C29.9127 33.9815 28.6431 35.6129 29.0945 37.0704C29.7065 39.0474 32.0793 40.0547 34.0901 39.1849C36.33 38.2167 38.6427 36.7179 40.7799 36.7989C44.4529 36.9392 46.3261 38.6523 46.3261 41.4027C46.3261 43.9737 44.6492 46.3053 42.1983 49.2944C39.2959 52.8218 37.9419 56.1097 37.9419 59.4577C37.9419 59.4633 37.9419 59.4682 37.9419 59.4737C37.9454 60.9537 39.2477 62.1481 40.8435 62.1481H43.5202C45.0705 62.1481 46.354 61.0242 46.4344 59.5882C46.5797 56.9823 47.2099 54.9767 49.9375 51.8047C52.7749 48.5168 56 44.9894 56 40.0268C56 34.7654 51.4174 29 42.1298 29L42.1305 29.0014Z" fill="#00A886"/>
<g style="mix-blend-mode:multiply">
<path d="M55.9999 40.0275C55.9999 44.9901 52.7755 48.5174 49.9375 51.8054C47.2098 54.9774 46.5796 56.983 46.4343 59.5882C46.3539 61.0241 45.0704 62.148 43.5201 62.148H40.8434C39.7241 62.148 38.7488 61.5603 38.266 60.6988C38.514 60.7624 38.776 60.7966 39.0457 60.7966H41.7224C43.2727 60.7966 44.5562 59.672 44.6359 58.2367C44.7819 55.6308 45.4121 53.6253 48.1397 50.4539C50.9771 47.166 54.2022 43.6386 54.2022 38.676C54.2022 36.0498 53.0599 33.2973 50.7605 31.2003C54.263 33.3581 55.9999 36.7884 55.9999 40.0275Z" fill="#47C1CC"/>
</g>
<path d="M42.5002 65.4045C40.0366 65.4045 38.1635 67.2754 38.1635 69.9832C38.1635 72.4446 39.7893 74.4635 42.5002 74.4635C45.211 74.4635 46.8369 72.5431 46.8369 69.9832C46.8369 67.2754 45.0629 65.4045 42.5002 65.4045Z" fill="#00A886"/>
<g style="mix-blend-mode:multiply">
<path d="M46.8361 69.9833C46.8361 72.5438 45.1607 74.4635 42.4994 74.4635C40.5151 74.4635 39.1122 73.3815 38.5029 71.836C39.0898 72.132 39.7787 72.2988 40.5571 72.2988C43.2183 72.2988 44.8938 70.3791 44.8938 67.8186C44.8938 67.1037 44.7701 66.4475 44.5409 65.8688C45.9565 66.5844 46.8361 68.0761 46.8361 69.9833Z" fill="#47C1CC"/>
</g>
<path d="M57.3739 64.6818L55.3537 63.3435C55.246 63.2711 55.1055 63.2807 55.0055 63.3644L53.1461 64.9295C52.9229 65.1177 52.5981 64.9005 52.6715 64.6142L53.2835 62.2223C53.3163 62.0936 53.2648 61.9585 53.157 61.8877L51.1368 60.5494C50.8948 60.3885 50.9932 60.0041 51.2804 59.9864L53.6785 59.8464C53.8065 59.8384 53.9158 59.7467 53.9486 59.6196L54.5606 57.2277C54.634 56.9414 55.0196 56.9189 55.1242 57.1955L55.9938 59.5022C56.0407 59.6261 56.1593 59.7049 56.2873 59.6968L58.6854 59.5569C58.9726 59.5408 59.1132 59.9124 58.8899 60.099L57.0305 61.6641C56.9306 61.7478 56.8946 61.8877 56.9415 62.0116L57.8111 64.3182C57.9157 64.5949 57.6159 64.8475 57.3739 64.6866L57.3739 64.6818Z" fill="#F7A707"/>
<path d="M27.2014 44.2947L28.4949 47.7597C28.5635 47.9454 28.7419 48.0639 28.9341 48.0533L32.5298 47.8552C32.9604 47.8322 33.1697 48.3894 32.8335 48.6706L30.0372 51.0106C29.8879 51.1362 29.833 51.3467 29.9016 51.5324L31.1951 54.9974C31.3495 55.413 30.9001 55.7898 30.5381 55.5475L27.5153 53.5275C27.3541 53.4197 27.143 53.4303 26.9921 53.5559L24.1958 55.8959C23.8612 56.1754 23.374 55.8499 23.4855 55.4201L24.4154 51.8331C24.4651 51.6403 24.3896 51.4369 24.2266 51.329L21.2039 49.3091C20.8419 49.0668 20.9912 48.4884 21.4218 48.4654L25.0175 48.2673C25.2096 48.2567 25.3743 48.1187 25.4241 47.9277L26.3539 44.3407C26.4654 43.9109 27.047 43.8791 27.2014 44.2947Z" fill="#F7A707"/>
<defs>
<filter id="filter0_d_46_304" x="8" y="46" width="69" height="69" filterUnits="userSpaceOnUse" color-interpolation-filters="sRGB">
<feFlood flood-opacity="0" result="BackgroundImageFix"/>
<feColorMatrix in="SourceAlpha" type="matrix" values="0 0 0 0 0 0 0 0 0 0 0 0 0 0 0 0 0 0 127 0" result="hardAlpha"/>
<feOffset dy="4"/>
<feGaussianBlur stdDeviation="2"/>
<feComposite in2="hardAlpha" operator="out"/>
<feColorMatrix type="matrix" values="0 0 0 0 0 0 0 0 0 0 0 0 0 0 0 0 0 0 0.25 0"/>
<feBlend mode="normal" in2="BackgroundImageFix" result="effect1_dropShadow_46_304"/>
<feBlend mode="normal" in="SourceGraphic" in2="effect1_dropShadow_46_304" result="shape"/>
</filter>
</defs>
</svg>
