<svg width="119" height="49" viewBox="0 0 119 49" fill="none" xmlns="http://www.w3.org/2000/svg">
<path d="M503.32 39.2C497.02 39.2 491.32 33.8 487.62 24.4C484.12 15.4 478.72 10.3 472.92 10.3C467.12 10.3 461.72 15.4 458.22 24.4C454.52 33.8 448.82 39.2 442.52 39.2C436.22 39.2 430.52 33.8 426.82 24.4C423.32 15.4 417.92 10.3 412.12 10.3C406.32 10.3 400.92 15.4 397.42 24.4C393.72 33.8 388.02 39.2 381.72 39.2C375.42 39.2 369.72 33.8 366.02 24.4C362.52 15.4 357.12 10.3 351.32 10.3C345.52 10.3 340.12 15.4 336.62 24.4C332.92 33.8 327.22 39.2 320.92 39.2C314.62 39.2 308.92 33.8 305.22 24.4C301.72 15.4 296.32 10.3 290.52 10.3C284.72 10.3 279.32 15.4 275.82 24.4C272.12 33.8 266.42 39.2 260.12 39.2C253.82 39.2 248.12 33.8 244.42 24.4C240.92 15.4 235.52 10.3 229.72 10.3C223.92 10.3 218.52 15.4 215.02 24.4C211.32 33.8 205.62 39.2 199.32 39.2C193.02 39.2 187.32 33.8 183.62 24.4C180.12 15.4 174.72 10.3 168.92 10.3C163.12 10.3 157.72 15.4 154.22 24.4C150.52 33.8 144.82 39.2 138.52 39.2C132.22 39.2 126.52 33.8 122.82 24.4C119.32 15.4 113.92 10.3 108.12 10.3C102.32 10.3 96.9199 15.4 93.4199 24.4C89.7199 33.8 84.0199 39.2 77.7199 39.2C71.4199 39.2 65.7199 33.8 62.0199 24.4C58.5199 15.4 53.1199 10.3 47.3199 10.3C41.5199 10.3 36.1199 15.4 32.6199 24.4C32.5199 24.7 32.2199 24.8 32.0199 24.7C31.7199 24.6 31.6199 24.3 31.7199 24.1C35.4199 14.7 41.1199 9.3 47.4199 9.3C53.7199 9.3 59.4199 14.7 63.1199 24.1C66.6199 33.1 72.0199 38.2 77.8199 38.2C83.6199 38.2 89.0199 33.1 92.5199 24.1C96.2199 14.7 101.92 9.3 108.22 9.3C114.52 9.3 120.22 14.7 123.92 24.1C127.42 33.1 132.82 38.2 138.62 38.2C144.42 38.2 149.82 33.1 153.32 24.1C157.02 14.7 162.72 9.3 169.02 9.3C175.32 9.3 181.02 14.7 184.72 24.1C188.22 33.1 193.62 38.2 199.42 38.2C205.22 38.2 210.62 33.1 214.12 24.1C217.82 14.7 223.52 9.3 229.82 9.3C236.12 9.3 241.82 14.7 245.52 24.1C249.02 33.1 254.42 38.2 260.22 38.2C266.02 38.2 271.42 33.1 274.92 24.1C278.62 14.7 284.32 9.3 290.62 9.3C296.92 9.3 302.62 14.7 306.32 24.1C309.82 33.1 315.22 38.2 321.02 38.2C326.82 38.2 332.22 33.1 335.72 24.1C339.42 14.7 345.12 9.3 351.42 9.3C357.72 9.3 363.42 14.7 367.12 24.1C370.62 33.1 376.02 38.2 381.82 38.2C387.62 38.2 393.02 33.1 396.52 24.1C400.22 14.7 405.92 9.3 412.22 9.3C418.52 9.3 424.22 14.7 427.92 24.1C431.42 33.1 436.82 38.2 442.62 38.2C448.42 38.2 453.82 33.1 457.32 24.1C461.02 14.7 466.72 9.3 473.02 9.3C479.32 9.3 485.02 14.7 488.72 24.1C492.22 33.1 497.62 38.2 503.42 38.2C509.22 38.2 514.62 33.1 518.12 24.1C518.22 23.8 518.52 23.7 518.72 23.8C519.02 23.9 519.12 24.2 519.02 24.4C515.32 33.8 509.62 39.2 503.32 39.2Z" fill="#00A887"/>
<path d="M495.92 48.4C491.72 48.4 488.02 39.8 485.62 24.3C483.32 9.7 479.82 1.1 476.32 1.1C472.72 1.1 469.22 9.8 467.02 24.3C464.62 39.8 460.92 48.4 456.72 48.4C452.52 48.4 448.82 39.8 446.42 24.3C444.12 9.7 440.62 1.1 437.12 1.1C433.52 1.1 430.02 9.8 427.82 24.3C425.42 39.8 421.72 48.4 417.52 48.4C413.32 48.4 409.62 39.8 407.22 24.3C404.92 9.7 401.42 1.1 397.92 1.1C394.32 1.1 390.82 9.8 388.62 24.3C386.22 39.8 382.52 48.4 378.32 48.4C374.12 48.4 370.42 39.8 368.02 24.3C365.72 9.7 362.22 1.1 358.72 1.1C355.12 1.1 351.62 9.8 349.42 24.3C347.02 39.8 343.32 48.4 339.12 48.4C334.92 48.4 331.22 39.8 328.82 24.3C326.52 9.7 323.02 1.1 319.52 1.1C316.02 1.1 312.42 9.8 310.22 24.3C307.82 39.8 304.12 48.4 299.92 48.4C295.72 48.4 292.02 39.8 289.62 24.3C287.32 9.7 283.82 1.1 280.32 1.1C276.72 1.1 273.22 9.8 271.02 24.3C268.62 39.8 264.92 48.4 260.72 48.4C256.52 48.4 252.82 39.8 250.42 24.3C248.12 9.7 244.62 1.1 241.12 1.1C237.52 1.1 234.02 9.8 231.82 24.3C229.42 39.8 225.72 48.4 221.52 48.4C217.32 48.4 213.62 39.8 211.22 24.3C208.92 9.7 205.42 1.1 201.92 1.1C198.32 1.1 194.82 9.8 192.62 24.3C190.22 39.8 186.52 48.4 182.32 48.4C178.12 48.4 174.42 39.8 172.02 24.3C169.72 9.7 166.22 1.1 162.72 1.1C159.12 1.1 155.62 9.8 153.42 24.3C151.02 39.8 147.32 48.4 143.12 48.4C138.92 48.4 135.22 39.8 132.82 24.3C130.52 9.7 127.02 1.1 123.52 1.1C119.92 1.1 116.42 9.8 114.22 24.3C111.82 39.8 108.12 48.4 103.92 48.4C99.7199 48.4 96.0199 39.8 93.6199 24.3C91.3199 9.7 87.8199 1.1 84.3199 1.1C80.7199 1.1 77.2199 9.8 75.0199 24.3C71.6199 39.8 67.9199 48.4 63.7199 48.4C59.5199 48.4 55.8199 39.8 53.4199 24.3C51.1199 9.7 47.6199 1.1 44.1199 1.1C40.5199 1.1 37.0199 9.8 34.8199 24.3C34.8199 24.6 34.5199 24.8 34.2199 24.7C33.9199 24.7 33.7199 24.4 33.8199 24.1C36.2199 8.6 39.9199 0 44.1199 0C48.3199 0 52.0199 8.6 54.4199 24.1C56.7199 38.7 60.2199 47.3 63.7199 47.3C67.2199 47.3 70.8199 38.6 73.0199 24.1C75.4199 8.6 79.1199 0 83.3199 0C87.5199 0 91.2199 8.6 93.6199 24.1C95.9199 38.7 99.4199 47.3 102.92 47.3C106.42 47.3 110.02 38.6 112.22 24.1C114.62 8.6 118.32 0 122.52 0C126.72 0 130.42 8.6 132.82 24.1C135.12 38.7 138.62 47.3 142.12 47.3C145.72 47.3 149.22 38.6 151.42 24.1C153.82 8.6 157.52 0 161.72 0C165.92 0 169.62 8.6 172.02 24.1C174.32 38.7 177.82 47.3 181.32 47.3C184.92 47.3 188.42 38.6 190.62 24.1C193.02 8.6 196.72 0 200.92 0C205.12 0 208.82 8.6 211.22 24.1C213.52 38.7 217.02 47.3 220.52 47.3C224.12 47.3 227.62 38.6 229.82 24.1C232.22 8.6 235.92 0 240.12 0C244.32 0 248.02 8.6 250.42 24.1C252.72 38.7 256.22 47.3 259.72 47.3C263.22 47.3 266.82 38.6 269.02 24.1C271.42 8.6 275.12 0 279.32 0C283.52 0 287.22 8.6 289.62 24.1C291.92 38.7 295.42 47.3 298.92 47.3C302.42 47.3 306.02 38.6 308.22 24.1C310.62 8.6 314.32 0 318.52 0C322.72 0 326.42 8.6 328.82 24.1C331.12 38.7 334.62 47.3 338.12 47.3C341.62 47.3 345.22 38.6 347.42 24.1C349.82 8.6 353.52 0 357.72 0C361.92 0 365.62 8.6 368.02 24.1C370.32 38.7 373.82 47.3 377.32 47.3C380.82 47.3 384.42 38.6 386.62 24.1C389.02 8.6 392.72 0 396.92 0C401.12 0 404.82 8.6 407.22 24.1C409.52 38.7 413.02 47.3 416.52 47.3C420.02 47.3 423.62 38.6 425.82 24.1C428.22 8.6 431.92 0 436.12 0C440.32 0 444.02 8.6 446.42 24.1C448.72 38.7 452.22 47.3 455.72 47.3C459.22 47.3 462.82 38.6 465.02 24.1C467.42 8.6 471.12 0 475.32 0C479.52 0 483.22 8.6 485.62 24.1C487.92 38.7 491.42 47.3 494.92 47.3C498.42 47.3 502.02 38.6 504.22 24.1C504.22 23.8 504.52 23.6 504.82 23.7C505.12 23.7 505.32 24 505.22 24.3C503.82 39.8 500.22 48.4 495.92 48.4Z" fill="#FAA61A"/>
<path d="M22.9199 22.4C23.5199 22.9 23.6199 23.8 23.2199 24.5C22.3199 26.1 19.9199 28.7 13.9199 28.1C6.91986 27.3 4.41986 23.9 4.41986 23.9C4.41986 23.9 2.41986 24.7 1.41986 26.4C1.31986 26.5 0.919863 26.5 0.919863 26.2C0.819863 25.6 1.11986 23.8 1.11986 23.8C1.11986 23.8 0.219863 22.4 0.019863 21.7C-0.080137 21.5 0.219863 21.3 0.419863 21.4C1.11986 21.9 2.41986 22.6 4.21986 22.8C4.21986 22.8 7.71986 19.5 13.9199 19.6C18.7199 19.5 21.7199 21.3 22.9199 22.4Z" fill="#6D6E71"/>
</svg>
