<svg width="50" height="73" viewBox="0 0 50 73" fill="none" xmlns="http://www.w3.org/2000/svg">
<g clip-path="url(#clip0_159_422)">
<path d="M0 0.0167236L11.9557 23.7721H31.4437L19.4881 0.0167236H0Z" fill="#EE5F3E"/>
<path d="M1.42139 0.0145264L13.359 23.73H14.4231L2.48734 0.0145264H1.42139Z" fill="#FFC32E"/>
<path d="M29.9591 23.73L18.0233 0.0145264H16.9773L28.9348 23.7718L29.9591 23.73Z" fill="#FFC32E"/>
<path d="M30.5102 0.0107422L18.5527 23.7716H38.0408L50.0001 0.0107422H30.5102Z" fill="#EE5F3E"/>
<path d="M47.4949 0L35.532 23.7717L36.5562 23.73L48.4992 0H47.4949Z" fill="#FFC32E"/>
<path d="M31.9606 0L19.9958 23.7717L21.0201 23.73L32.9631 0H31.9606Z" fill="#FFC32E"/>
<path d="M27.1492 42.1062H22.7929C21.8049 42.1062 21 41.3001 21 40.3107V30.1549C21 29.1655 21.8049 28.3594 22.7929 28.3594H27.1492C28.1372 28.3594 28.9421 29.1655 28.9421 30.1549V40.3107C28.9421 41.3001 28.1372 42.1062 27.1492 42.1062ZM22.8944 40.2108H27.0476V30.2566H22.8944V40.2108Z" fill="#FFA300"/>
<path d="M44.1967 57.7591C46.7029 47.1253 40.1266 36.4703 29.5082 33.9605C18.8898 31.4507 8.25028 38.0365 5.74411 48.6703C3.23795 59.3041 9.8142 69.959 20.4326 72.4688C31.051 74.9786 41.6905 68.3928 44.1967 57.7591Z" fill="#FFC32E"/>
<path d="M24.9701 69.1947C16.1723 69.1947 9.01343 62.0273 9.01343 53.215C9.01343 44.4027 16.1705 37.2352 24.9701 37.2352C33.7696 37.2352 40.9267 44.4027 40.9267 53.215C40.9267 62.0273 33.7696 69.1947 24.9701 69.1947ZM24.9701 38.2519C16.7307 38.2519 10.0268 44.9655 10.0268 53.2168C10.0268 61.4681 16.7307 68.1817 24.9701 68.1817C33.2094 68.1817 39.9133 61.4681 39.9133 53.2168C39.9133 44.9655 33.2094 38.2519 24.9701 38.2519Z" fill="#FFA300"/>
<path d="M18.3622 46.732C20.0517 45.9005 21.3842 45.4266 23.5469 42.845H28.8223V59.6417H31.5778V63.5886H19.7236V59.6417H22.6876V48.6327L19.7236 50.027L18.3604 46.732H18.3622Z" fill="#F28400"/>
<path d="M26.7142 24.1276H23.2317V30.8466H26.7142V24.1276Z" fill="#FFC32E"/>
<path d="M38.0661 23.6193H11.876V26.3062H38.0661V23.6193Z" fill="#FFC32E"/>
</g>
<defs>
<clipPath id="clip0_159_422">
<rect width="50" height="73" fill="white"/>
</clipPath>
</defs>
</svg>
