<svg width="375" height="126" viewBox="0 0 375 126" fill="none" xmlns="http://www.w3.org/2000/svg">
<g clip-path="url(#clip0_6_265)">
<path d="M-20.1765 75.2575C-20.7252 75.2575 -21.1538 74.8125 -21.1538 74.2819V69.1984C-21.1538 68.6507 -20.708 68.2228 -20.1765 68.2228C-19.6449 68.2228 -19.1991 68.6679 -19.1991 69.1984V74.2819C-19.182 74.8125 -19.6278 75.2575 -20.1765 75.2575ZM-12.7863 78.1844V65.2618C-12.7863 64.714 -13.2321 64.2861 -13.7637 64.2861C-14.3123 64.2861 -14.741 64.7312 -14.741 65.2618V78.1844C-14.741 78.7321 -14.2952 79.16 -13.7637 79.16C-13.2321 79.1771 -12.7863 78.7321 -12.7863 78.1844ZM19.2093 78.1844V65.2618C19.2093 64.714 18.7635 64.2861 18.2319 64.2861C17.7004 64.2861 17.2546 64.7312 17.2546 65.2618V78.1844C17.2546 78.7321 17.7004 79.16 18.2319 79.16C18.7635 79.16 19.2093 78.7321 19.2093 78.1844ZM-6.39061 76.9349V66.5455C-6.39061 65.9977 -6.83643 65.5698 -7.36797 65.5698C-7.89952 65.5698 -8.34533 66.0149 -8.34533 66.5455V76.9349C-8.34533 77.4826 -7.89952 77.9105 -7.36797 77.9105C-6.83643 77.9105 -6.39061 77.4655 -6.39061 76.9349ZM0.00506783 82.7544V60.7089C0.00506783 60.1612 -0.440744 59.7333 -0.972288 59.7333C-1.52098 59.7333 -1.94964 60.1783 -1.94964 60.7089V82.7544C-1.94964 83.3021 -1.50383 83.73 -0.972288 83.73C-0.423597 83.73 0.00506783 83.3021 0.00506783 82.7544ZM25.6049 82.7544V60.7089C25.6049 60.1612 25.1591 59.7333 24.6276 59.7333C24.0789 59.7333 23.6502 60.1783 23.6502 60.7089V82.7544C23.6502 83.3021 24.096 83.73 24.6276 83.73C25.1763 83.73 25.6049 83.3021 25.6049 82.7544ZM44.8091 82.7544V60.7089C44.8091 60.1612 44.3633 59.7333 43.8318 59.7333C43.2831 59.7333 42.8544 60.1783 42.8544 60.7089V82.7544C42.8544 83.3021 43.3002 83.73 43.8318 83.73C44.3633 83.73 44.8091 83.3021 44.8091 82.7544ZM6.4179 84.9966V58.4667C6.4179 57.919 5.97209 57.4911 5.44054 57.4911C4.89185 57.4911 4.46318 57.9361 4.46318 58.4667V84.9966C4.46318 85.5443 4.909 85.9722 5.44054 85.9722C5.97209 85.9893 6.4179 85.5443 6.4179 84.9966ZM51.2048 89.2756V54.1877C51.2048 53.6399 50.759 53.2121 50.2275 53.2121C49.6788 53.2121 49.2501 53.6571 49.2501 54.1877V89.2927C49.2501 89.8404 49.6959 90.2683 50.2275 90.2683C50.759 90.2683 51.2048 89.8233 51.2048 89.2756ZM12.8136 94.6158V48.8475C12.8136 48.2997 12.3678 47.8718 11.8362 47.8718C11.2875 47.8718 10.8589 48.3169 10.8589 48.8475V94.6158C10.8589 95.1635 11.3047 95.5914 11.8362 95.5914C12.3678 95.5914 12.8136 95.1635 12.8136 94.6158ZM57.6005 79.5879V63.8582C57.6005 63.3105 57.1547 62.8826 56.6231 62.8826C56.0916 62.8826 55.6458 63.3276 55.6458 63.8582V79.5879C55.6458 80.1356 56.0916 80.5635 56.6231 80.5635C57.1547 80.5635 57.6005 80.1356 57.6005 79.5879ZM64.0133 84.9966V58.4667C64.0133 57.919 63.5675 57.4911 63.036 57.4911C62.4873 57.4911 62.0586 57.9361 62.0586 58.4667V84.9966C62.0586 85.5443 62.5044 85.9722 63.036 85.9722C63.5675 85.9893 64.0133 85.5443 64.0133 84.9966ZM70.409 94.7527V48.7105C70.409 48.1628 69.9632 47.7349 69.4317 47.7349C68.883 47.7349 68.4543 48.1799 68.4543 48.7105V94.7527C68.4543 95.3004 68.9001 95.7283 69.4317 95.7283C69.9632 95.7455 70.409 95.3004 70.409 94.7527ZM108.8 94.7527V48.7105C108.8 48.1628 108.354 47.7349 107.823 47.7349C107.274 47.7349 106.846 48.1799 106.846 48.7105V94.7527C106.846 95.3004 107.291 95.7283 107.823 95.7283C108.354 95.7455 108.8 95.3004 108.8 94.7527ZM76.8047 97.9877V45.4756C76.8047 44.9279 76.3589 44.5 75.8273 44.5C75.2786 44.5 74.85 44.945 74.85 45.4756V97.9877C74.85 98.5354 75.2958 98.9633 75.8273 98.9633C76.3589 98.9633 76.8047 98.5354 76.8047 97.9877ZM121.592 82.7544V60.7089C121.592 60.1612 121.146 59.7333 120.614 59.7333C120.066 59.7333 119.637 60.1783 119.637 60.7089V82.7544C119.637 83.3021 120.083 83.73 120.614 83.73C121.163 83.73 121.592 83.3021 121.592 82.7544ZM128.004 89.2756V54.1877C128.004 53.6399 127.559 53.2121 127.027 53.2121C126.478 53.2121 126.05 53.6571 126.05 54.1877V89.2927C126.05 89.8404 126.496 90.2683 127.027 90.2683C127.559 90.2683 128.004 89.8233 128.004 89.2756ZM134.4 79.5879V63.8582C134.4 63.3105 133.954 62.8826 133.423 62.8826C132.874 62.8826 132.445 63.3276 132.445 63.8582V79.5879C132.445 80.1356 132.891 80.5635 133.423 80.5635C133.954 80.5806 134.4 80.1356 134.4 79.5879ZM140.796 93.7771V49.6861C140.796 49.1384 140.35 48.7105 139.818 48.7105C139.27 48.7105 138.841 49.1555 138.841 49.6861V93.76C138.841 94.3077 139.287 94.7356 139.818 94.7356C140.35 94.7527 140.796 94.3248 140.796 93.7771ZM147.191 102.472V40.9912C147.191 40.4435 146.746 40.0156 146.214 40.0156C145.665 40.0156 145.237 40.4606 145.237 40.9912V102.489C145.237 103.037 145.683 103.465 146.214 103.465C146.746 103.465 147.191 103.02 147.191 102.472ZM153.587 97.9877V45.4756C153.587 44.9279 153.141 44.5 152.61 44.5C152.078 44.5 151.632 44.945 151.632 45.4756V97.9877C151.632 98.5354 152.078 98.9633 152.61 98.9633C153.141 98.9633 153.587 98.5354 153.587 97.9877ZM32.0006 94.7527V48.7105C32.0006 48.1628 31.5548 47.7349 31.0233 47.7349C30.4746 47.7349 30.0459 48.1799 30.0459 48.7105V94.7527C30.0459 95.3004 30.4917 95.7283 31.0233 95.7283C31.572 95.7455 32.0006 95.3004 32.0006 94.7527ZM38.4135 105.005V38.458C38.4135 37.9103 37.9676 37.4824 37.4361 37.4824C36.9046 37.4824 36.4587 37.9274 36.4587 38.458V105.005C36.4587 105.553 36.9046 105.981 37.4361 105.981C37.9676 105.981 38.4135 105.553 38.4135 105.005ZM115.196 115.189V28.274C115.196 27.7262 114.75 27.2983 114.219 27.2983C113.687 27.2983 113.241 27.7434 113.241 28.274V115.172C113.241 115.72 113.687 116.148 114.219 116.148C114.75 116.148 115.196 115.72 115.196 115.189ZM83.2004 78.1844V65.2618C83.2004 64.714 82.7546 64.2861 82.223 64.2861C81.6743 64.2861 81.2457 64.7312 81.2457 65.2618V78.1844C81.2457 78.7321 81.6915 79.16 82.223 79.16C82.7546 79.1771 83.2004 78.7321 83.2004 78.1844ZM89.5961 86.7595V56.7037C89.5961 56.156 89.1503 55.7281 88.6187 55.7281C88.0872 55.7281 87.6413 56.1731 87.6413 56.7037V86.7424C87.6413 87.2901 88.0872 87.718 88.6187 87.718C89.1503 87.718 89.5961 87.2901 89.5961 86.7595ZM96.0089 91.8088V51.6545C96.0089 51.1068 95.5631 50.6789 95.0315 50.6789C94.4828 50.6789 94.0542 51.1239 94.0542 51.6545V91.8088C94.0542 92.3565 94.5 92.7844 95.0315 92.7844C95.5631 92.7844 96.0089 92.3565 96.0089 91.8088ZM102.405 100.23V43.2334C102.405 42.6857 101.959 42.2578 101.427 42.2578C100.879 42.2578 100.45 42.7028 100.45 43.2334V100.23C100.45 100.778 100.896 101.205 101.427 101.205C101.959 101.205 102.405 100.778 102.405 100.23ZM172.791 94.7527V48.7105C172.791 48.1628 172.346 47.7349 171.814 47.7349C171.265 47.7349 170.837 48.1799 170.837 48.7105V94.7527C170.837 95.3004 171.282 95.7283 171.814 95.7283C172.346 95.7455 172.791 95.3004 172.791 94.7527ZM179.187 115.189V28.274C179.187 27.7262 178.741 27.2983 178.21 27.2983C177.661 27.2983 177.232 27.7434 177.232 28.274V115.172C177.232 115.72 177.678 116.148 178.21 116.148C178.758 116.165 179.187 115.72 179.187 115.189ZM185.583 131.826V11.6371C185.583 11.0894 185.137 10.6615 184.605 10.6615C184.074 10.6615 183.628 11.1065 183.628 11.6371V131.809C183.628 132.357 184.074 132.785 184.605 132.785C185.137 132.785 185.583 132.357 185.583 131.826ZM160 91.8088V51.6545C160 51.1068 159.554 50.6789 159.023 50.6789C158.474 50.6789 158.045 51.1239 158.045 51.6545V91.8088C158.045 92.3565 158.491 92.7844 159.023 92.7844C159.554 92.7844 160 92.3565 160 91.8088ZM166.396 100.23V43.2334C166.396 42.6857 165.95 42.2578 165.418 42.2578C164.887 42.2578 164.441 42.7028 164.441 43.2334V100.23C164.441 100.778 164.887 101.205 165.418 101.205C165.95 101.205 166.396 100.778 166.396 100.23ZM390.365 74.2819V69.1984C390.365 68.6507 389.919 68.2228 389.387 68.2228C388.839 68.2228 388.41 68.6679 388.41 69.1984V74.2819C388.41 74.8296 388.856 75.2575 389.387 75.2575C389.919 75.2575 390.365 74.8125 390.365 74.2819ZM383.969 78.1844V65.2618C383.969 64.714 383.523 64.2861 382.992 64.2861C382.443 64.2861 382.014 64.7312 382.014 65.2618V78.1844C382.014 78.7321 382.46 79.16 382.992 79.16C383.523 79.1771 383.969 78.7321 383.969 78.1844ZM351.973 78.1844V65.2618C351.973 64.714 351.528 64.2861 350.996 64.2861C350.447 64.2861 350.019 64.7312 350.019 65.2618V78.1844C350.019 78.7321 350.464 79.16 350.996 79.16C351.528 79.1771 351.973 78.7321 351.973 78.1844ZM377.573 76.9349V66.5455C377.573 65.9977 377.127 65.5698 376.596 65.5698C376.064 65.5698 375.619 66.0149 375.619 66.5455V76.9349C375.619 77.4826 376.064 77.9105 376.596 77.9105C377.127 77.9105 377.573 77.4655 377.573 76.9349ZM371.16 82.7544V60.7089C371.16 60.1612 370.715 59.7333 370.183 59.7333C369.652 59.7333 369.206 60.1783 369.206 60.7089V82.7544C369.206 83.3021 369.652 83.73 370.183 83.73C370.715 83.73 371.16 83.3021 371.16 82.7544ZM345.578 82.7544V60.7089C345.578 60.1612 345.132 59.7333 344.6 59.7333C344.052 59.7333 343.623 60.1783 343.623 60.7089V82.7544C343.623 83.3021 344.069 83.73 344.6 83.73C345.132 83.73 345.578 83.3021 345.578 82.7544ZM326.374 82.7544V60.7089C326.374 60.1612 325.928 59.7333 325.396 59.7333C324.865 59.7333 324.419 60.1783 324.419 60.7089V82.7544C324.419 83.3021 324.865 83.73 325.396 83.73C325.928 83.73 326.374 83.3021 326.374 82.7544ZM364.765 84.9966V58.4667C364.765 57.919 364.319 57.4911 363.787 57.4911C363.239 57.4911 362.81 57.9361 362.81 58.4667V84.9966C362.81 85.5443 363.256 85.9722 363.787 85.9722C364.319 85.9893 364.765 85.5443 364.765 84.9966ZM319.978 89.2756V54.1877C319.978 53.6399 319.532 53.2121 319 53.2121C318.469 53.2121 318.023 53.6571 318.023 54.1877V89.2927C318.023 89.8404 318.469 90.2683 319 90.2683C319.532 90.2683 319.978 89.8233 319.978 89.2756ZM358.369 94.6158V48.8475C358.369 48.2997 357.923 47.8718 357.392 47.8718C356.86 47.8718 356.414 48.3169 356.414 48.8475V94.6158C356.414 95.1635 356.86 95.5914 357.392 95.5914C357.923 95.5914 358.369 95.1635 358.369 94.6158ZM313.582 79.5879V63.8582C313.582 63.3105 313.136 62.8826 312.605 62.8826C312.073 62.8826 311.627 63.3276 311.627 63.8582V79.5879C311.627 80.1356 312.073 80.5635 312.605 80.5635C313.136 80.5635 313.582 80.1356 313.582 79.5879ZM307.169 84.9966V58.4667C307.169 57.919 306.723 57.4911 306.192 57.4911C305.643 57.4911 305.215 57.9361 305.215 58.4667V84.9966C305.215 85.5443 305.66 85.9722 306.192 85.9722C306.741 85.9893 307.169 85.5443 307.169 84.9966ZM300.774 94.7527V48.7105C300.774 48.1628 300.328 47.7349 299.796 47.7349C299.265 47.7349 298.819 48.1799 298.819 48.7105V94.7527C298.819 95.3004 299.265 95.7283 299.796 95.7283C300.328 95.7283 300.774 95.3004 300.774 94.7527ZM262.382 94.7527V48.7105C262.382 48.1628 261.937 47.7349 261.405 47.7349C260.873 47.7349 260.428 48.1799 260.428 48.7105V94.7527C260.428 95.3004 260.873 95.7283 261.405 95.7283C261.937 95.7283 262.382 95.3004 262.382 94.7527ZM294.378 97.9877V45.4756C294.378 44.9279 293.932 44.5 293.401 44.5C292.869 44.5 292.423 44.945 292.423 45.4756V97.9877C292.423 98.5354 292.869 98.9633 293.401 98.9633C293.932 98.9633 294.378 98.5354 294.378 97.9877ZM249.574 82.7544V60.7089C249.574 60.1612 249.128 59.7333 248.596 59.7333C248.048 59.7333 247.619 60.1783 247.619 60.7089V82.7544C247.619 83.3021 248.065 83.73 248.596 83.73C249.145 83.73 249.574 83.3021 249.574 82.7544ZM243.178 89.2756V54.1877C243.178 53.6399 242.732 53.2121 242.201 53.2121C241.652 53.2121 241.223 53.6571 241.223 54.1877V89.2927C241.223 89.8404 241.669 90.2683 242.201 90.2683C242.75 90.2683 243.178 89.8233 243.178 89.2756ZM236.783 79.5879V63.8582C236.783 63.3105 236.337 62.8826 235.805 62.8826C235.274 62.8826 234.828 63.3276 234.828 63.8582V79.5879C234.828 80.1356 235.274 80.5635 235.805 80.5635C236.337 80.5635 236.783 80.1356 236.783 79.5879ZM230.387 93.7771V49.6861C230.387 49.1384 229.941 48.7105 229.409 48.7105C228.878 48.7105 228.432 49.1555 228.432 49.6861V93.76C228.432 94.3077 228.878 94.7356 229.409 94.7356C229.941 94.7356 230.387 94.3248 230.387 93.7771ZM223.991 102.472V40.9912C223.991 40.4435 223.545 40.0156 223.014 40.0156C222.465 40.0156 222.036 40.4606 222.036 40.9912V102.489C222.036 103.037 222.482 103.465 223.014 103.465C223.545 103.465 223.991 103.02 223.991 102.472ZM217.578 97.9877V45.4756C217.578 44.9279 217.132 44.5 216.601 44.5C216.069 44.5 215.624 44.945 215.624 45.4756V97.9877C215.624 98.5354 216.069 98.9633 216.601 98.9633C217.132 98.9633 217.578 98.5354 217.578 97.9877ZM339.165 94.7527V48.7105C339.165 48.1628 338.719 47.7349 338.188 47.7349C337.639 47.7349 337.21 48.1799 337.21 48.7105V94.7527C337.21 95.3004 337.656 95.7283 338.188 95.7283C338.736 95.7455 339.165 95.3004 339.165 94.7527ZM332.769 105.005V38.458C332.769 37.9103 332.323 37.4824 331.792 37.4824C331.243 37.4824 330.814 37.9274 330.814 38.458V105.005C330.814 105.553 331.26 105.981 331.792 105.981C332.323 105.981 332.769 105.553 332.769 105.005ZM255.987 115.189V28.274C255.987 27.7262 255.541 27.2983 255.009 27.2983C254.461 27.2983 254.032 27.7434 254.032 28.274V115.172C254.032 115.72 254.478 116.148 255.009 116.148C255.541 116.165 255.987 115.72 255.987 115.189ZM287.982 78.1844V65.2618C287.982 64.714 287.536 64.2861 287.005 64.2861C286.456 64.2861 286.028 64.7312 286.028 65.2618V78.1844C286.028 78.7321 286.473 79.16 287.005 79.16C287.536 79.1771 287.982 78.7321 287.982 78.1844ZM281.587 86.7595V56.7037C281.587 56.156 281.141 55.7281 280.609 55.7281C280.078 55.7281 279.632 56.1731 279.632 56.7037V86.7424C279.632 87.2901 280.078 87.718 280.609 87.718C281.141 87.718 281.587 87.2901 281.587 86.7595ZM275.174 91.8088V51.6545C275.174 51.1068 274.728 50.6789 274.196 50.6789C273.665 50.6789 273.219 51.1239 273.219 51.6545V91.8088C273.219 92.3565 273.665 92.7844 274.196 92.7844C274.728 92.7844 275.174 92.3565 275.174 91.8088ZM268.778 100.23V43.2334C268.778 42.6857 268.332 42.2578 267.801 42.2578C267.269 42.2578 266.823 42.7028 266.823 43.2334V100.23C266.823 100.778 267.269 101.205 267.801 101.205C268.332 101.205 268.778 100.778 268.778 100.23ZM198.391 94.7527V48.7105C198.391 48.1628 197.945 47.7349 197.414 47.7349C196.865 47.7349 196.437 48.1799 196.437 48.7105V94.7527C196.437 95.3004 196.882 95.7283 197.414 95.7283C197.945 95.7455 198.391 95.3004 198.391 94.7527ZM191.996 115.189V28.274C191.996 27.7262 191.55 27.2983 191.018 27.2983C190.47 27.2983 190.041 27.7434 190.041 28.274V115.172C190.041 115.72 190.487 116.148 191.018 116.148C191.55 116.165 191.996 115.72 191.996 115.189ZM211.183 91.8088V51.6545C211.183 51.1068 210.737 50.6789 210.205 50.6789C209.657 50.6789 209.228 51.1239 209.228 51.6545V91.8088C209.228 92.3565 209.674 92.7844 210.205 92.7844C210.754 92.7844 211.183 92.3565 211.183 91.8088ZM204.787 100.23V43.2334C204.787 42.6857 204.341 42.2578 203.81 42.2578C203.278 42.2578 202.832 42.7028 202.832 43.2334V100.23C202.832 100.778 203.278 101.205 203.81 101.205C204.341 101.205 204.787 100.778 204.787 100.23Z" fill="white"/>
</g>
<defs>
<clipPath id="clip0_6_265">
<rect width="424.523" height="126" fill="white" transform="translate(-26)"/>
</clipPath>
</defs>
</svg>
